<?xml version="1.0" standalone="no"?><!DOCTYPE svg PUBLIC "-//W3C//DTD SVG 1.1//EN" "http://www.w3.org/Graphics/SVG/1.1/DTD/svg11.dtd"><svg height="1024" node-id="1" sillyvg="true" template-height="1024" template-width="1024" version="1.1" viewBox="0 0 1024 1024" width="1024" xmlns="http://www.w3.org/2000/svg" xmlns:xlink="http://www.w3.org/1999/xlink"><defs node-id="148"><linearGradient gradientUnits="objectBoundingBox" id="SVGID_1_" node-id="68" spreadMethod="pad" x1="503.256" x2="511.6131" y1="622.252" y2="753.951"><stop offset="0" stop-color="#91b3ff"></stop><stop offset="0.4022" stop-color="#6791f2"></stop><stop offset="0.7939" stop-color="#3b6ce4"></stop></linearGradient><linearGradient gradientUnits="objectBoundingBox" id="SVGID_2_" node-id="73" spreadMethod="pad" x1="518.961" x2="522.944" y1="619.2672" y2="682.0345"><stop offset="0" stop-color="#91b3ff"></stop><stop offset="0.2484" stop-color="#6795ec"></stop><stop offset="0.7939" stop-color="#004cbf"></stop></linearGradient><linearGradient gradientUnits="objectBoundingBox" id="SVGID_3_" node-id="82" spreadMethod="pad" x1="743.4358" x2="706.483" y1="650.0374" y2="599.7522"><stop offset="0" stop-color="#efbb81"></stop><stop offset="0.5011" stop-color="#f79e57"></stop><stop offset="1" stop-color="#ff7f2a"></stop></linearGradient><linearGradient gradientUnits="objectBoundingBox" id="SVGID_4_" node-id="91" spreadMethod="pad" x1="801.7661" x2="780.6832" y1="687.5665" y2="658.8769"><stop offset="0" stop-color="#efbb81"></stop><stop offset="0.5011" stop-color="#f79e57"></stop><stop offset="1" stop-color="#ff7f2a"></stop></linearGradient></defs><g node-id="471"><path d="M 609.00 596.60 L 414.00 596.60 L 412.40 596.40 L 411.00 595.80 L 409.80 594.80 L 408.80 593.60 L 408.20 592.20 L 408.00 590.60 L 408.20 589.00 L 409.80 586.40 L 412.40 584.80 L 414.00 584.60 L 609.00 584.60 L 610.60 584.80 L 613.20 586.40 L 614.20 587.60 L 614.80 589.00 L 615.00 590.60 L 614.80 592.20 L 614.20 593.60 L 613.20 594.80 L 610.60 596.40 L 609.00 596.60 Z" fill="#274da0" fill-rule="nonzero" group-id="1" node-id="187" stroke="none" target-height="12" target-width="207" target-x="408" target-y="584.6"></path><g node-id="476"><path d="M 446.00 595.70 L 446.00 641.70 L 434.00 641.70 L 434.00 595.70 Z" fill="#274da0" fill-rule="nonzero" group-id="1,6" node-id="191" stroke="none" target-height="46" target-width="12" target-x="434" target-y="595.7"></path></g><path d="M 588.00 595.70 L 588.00 641.70 L 576.00 641.70 L 576.00 595.70 Z" fill="#274da0" fill-rule="nonzero" group-id="1,7" node-id="196" stroke="none" target-height="46" target-width="12" target-x="576" target-y="595.7"></path></g><g node-id="472"><g node-id="478"><path d="M 162.50 717.10 L 162.50 511.30 L 244.90 511.30 L 244.90 363.10 L 385.50 363.10 L 385.50 717.10 Z" fill="#ccdafe" fill-rule="nonzero" group-id="2,8" node-id="204" stroke="none" target-height="353.99997" target-width="223" target-x="162.5" target-y="363.1"></path><g node-id="486"><path d="M 258.90 387.60 L 287.70 387.60 L 287.70 410.60 L 258.90 410.60 Z" fill="#a8beef" fill-rule="nonzero" group-id="2,8,16" node-id="208" stroke="none" target-height="23" target-width="28.800018" target-x="258.9" target-y="387.6"></path><path d="M 302.10 387.60 L 330.90 387.60 L 330.90 410.60 L 302.10 410.60 Z" fill="#a8beef" fill-rule="nonzero" group-id="2,8,16" node-id="210" stroke="none" target-height="23" target-width="28.799988" target-x="302.1" target-y="387.6"></path><path d="M 345.30 387.60 L 374.10 387.60 L 374.10 410.60 L 345.30 410.60 Z" fill="#a8beef" fill-rule="nonzero" group-id="2,8,16" node-id="212" stroke="none" target-height="23" target-width="28.800018" target-x="345.3" target-y="387.6"></path><path d="M 258.90 423.60 L 287.70 423.60 L 287.70 446.60 L 258.90 446.60 Z" fill="#a8beef" fill-rule="nonzero" group-id="2,8,16" node-id="214" stroke="none" target-height="23" target-width="28.800018" target-x="258.9" target-y="423.6"></path><path d="M 302.10 423.60 L 330.90 423.60 L 330.90 446.60 L 302.10 446.60 Z" fill="#a8beef" fill-rule="nonzero" group-id="2,8,16" node-id="216" stroke="none" target-height="23" target-width="28.799988" target-x="302.1" target-y="423.6"></path><path d="M 345.30 423.60 L 374.10 423.60 L 374.10 446.60 L 345.30 446.60 Z" fill="#a8beef" fill-rule="nonzero" group-id="2,8,16" node-id="218" stroke="none" target-height="23" target-width="28.800018" target-x="345.3" target-y="423.6"></path><path d="M 258.90 459.50 L 287.70 459.50 L 287.70 482.50 L 258.90 482.50 Z" fill="#a8beef" fill-rule="nonzero" group-id="2,8,16" node-id="220" stroke="none" target-height="23" target-width="28.800018" target-x="258.9" target-y="459.5"></path><path d="M 302.10 459.50 L 330.90 459.50 L 330.90 482.50 L 302.10 482.50 Z" fill="#a8beef" fill-rule="nonzero" group-id="2,8,16" node-id="222" stroke="none" target-height="23" target-width="28.799988" target-x="302.1" target-y="459.5"></path><path d="M 345.30 459.50 L 374.10 459.50 L 374.10 482.50 L 345.30 482.50 Z" fill="#a8beef" fill-rule="nonzero" group-id="2,8,16" node-id="224" stroke="none" target-height="23" target-width="28.800018" target-x="345.3" target-y="459.5"></path><path d="M 258.90 495.50 L 287.70 495.50 L 287.70 518.50 L 258.90 518.50 Z" fill="#a8beef" fill-rule="nonzero" group-id="2,8,16" node-id="226" stroke="none" target-height="23" target-width="28.800018" target-x="258.9" target-y="495.5"></path><path d="M 302.10 495.50 L 330.90 495.50 L 330.90 518.50 L 302.10 518.50 Z" fill="#a8beef" fill-rule="nonzero" group-id="2,8,16" node-id="228" stroke="none" target-height="23" target-width="28.799988" target-x="302.1" target-y="495.5"></path><path d="M 345.30 495.50 L 374.10 495.50 L 374.10 518.50 L 345.30 518.50 Z" fill="#a8beef" fill-rule="nonzero" group-id="2,8,16" node-id="230" stroke="none" target-height="23" target-width="28.800018" target-x="345.3" target-y="495.5"></path><path d="M 258.90 531.50 L 287.70 531.50 L 287.70 554.50 L 258.90 554.50 Z" fill="#a8beef" fill-rule="nonzero" group-id="2,8,16" node-id="232" stroke="none" target-height="23" target-width="28.800018" target-x="258.9" target-y="531.5"></path><path d="M 215.70 531.50 L 244.50 531.50 L 244.50 554.50 L 215.70 554.50 Z" fill="#a8beef" fill-rule="nonzero" group-id="2,8,16" node-id="234" stroke="none" target-height="23" target-width="28.800003" target-x="215.7" target-y="531.5"></path><path d="M 172.60 531.50 L 201.40 531.50 L 201.40 554.50 L 172.60 554.50 Z" fill="#a8beef" fill-rule="nonzero" group-id="2,8,16" node-id="236" stroke="none" target-height="23" target-width="28.799988" target-x="172.6" target-y="531.5"></path><path d="M 302.10 531.50 L 330.90 531.50 L 330.90 554.50 L 302.10 554.50 Z" fill="#a8beef" fill-rule="nonzero" group-id="2,8,16" node-id="238" stroke="none" target-height="23" target-width="28.799988" target-x="302.1" target-y="531.5"></path><path d="M 345.30 531.50 L 374.10 531.50 L 374.10 554.50 L 345.30 554.50 Z" fill="#a8beef" fill-rule="nonzero" group-id="2,8,16" node-id="240" stroke="none" target-height="23" target-width="28.800018" target-x="345.3" target-y="531.5"></path><path d="M 258.90 567.50 L 287.70 567.50 L 287.70 590.50 L 258.90 590.50 Z" fill="#a8beef" fill-rule="nonzero" group-id="2,8,16" node-id="242" stroke="none" target-height="23" target-width="28.800018" target-x="258.9" target-y="567.5"></path><path d="M 215.70 567.50 L 244.50 567.50 L 244.50 590.50 L 215.70 590.50 Z" fill="#a8beef" fill-rule="nonzero" group-id="2,8,16" node-id="244" stroke="none" target-height="23" target-width="28.800003" target-x="215.7" target-y="567.5"></path><path d="M 172.60 567.50 L 201.40 567.50 L 201.40 590.50 L 172.60 590.50 Z" fill="#a8beef" fill-rule="nonzero" group-id="2,8,16" node-id="246" stroke="none" target-height="23" target-width="28.799988" target-x="172.6" target-y="567.5"></path><path d="M 302.10 567.50 L 330.90 567.50 L 330.90 590.50 L 302.10 590.50 Z" fill="#a8beef" fill-rule="nonzero" group-id="2,8,16" node-id="248" stroke="none" target-height="23" target-width="28.799988" target-x="302.1" target-y="567.5"></path><path d="M 345.30 567.50 L 374.10 567.50 L 374.10 590.50 L 345.30 590.50 Z" fill="#a8beef" fill-rule="nonzero" group-id="2,8,16" node-id="250" stroke="none" target-height="23" target-width="28.800018" target-x="345.3" target-y="567.5"></path><path d="M 258.90 603.40 L 287.70 603.40 L 287.70 626.40 L 258.90 626.40 Z" fill="#a8beef" fill-rule="nonzero" group-id="2,8,16" node-id="252" stroke="none" target-height="23" target-width="28.800018" target-x="258.9" target-y="603.4"></path><path d="M 215.70 603.40 L 244.50 603.40 L 244.50 626.40 L 215.70 626.40 Z" fill="#a8beef" fill-rule="nonzero" group-id="2,8,16" node-id="254" stroke="none" target-height="23" target-width="28.800003" target-x="215.7" target-y="603.4"></path><path d="M 172.60 603.40 L 201.40 603.40 L 201.40 626.40 L 172.60 626.40 Z" fill="#a8beef" fill-rule="nonzero" group-id="2,8,16" node-id="256" stroke="none" target-height="23" target-width="28.799988" target-x="172.6" target-y="603.4"></path><path d="M 302.10 603.40 L 330.90 603.40 L 330.90 626.40 L 302.10 626.40 Z" fill="#a8beef" fill-rule="nonzero" group-id="2,8,16" node-id="258" stroke="none" target-height="23" target-width="28.799988" target-x="302.1" target-y="603.4"></path><path d="M 345.30 603.40 L 374.10 603.40 L 374.10 626.40 L 345.30 626.40 Z" fill="#a8beef" fill-rule="nonzero" group-id="2,8,16" node-id="260" stroke="none" target-height="23" target-width="28.800018" target-x="345.3" target-y="603.4"></path><path d="M 258.90 639.40 L 287.70 639.40 L 287.70 662.40 L 258.90 662.40 Z" fill="#a8beef" fill-rule="nonzero" group-id="2,8,16" node-id="262" stroke="none" target-height="23" target-width="28.800018" target-x="258.9" target-y="639.4"></path><path d="M 215.70 639.40 L 244.50 639.40 L 244.50 662.40 L 215.70 662.40 Z" fill="#a8beef" fill-rule="nonzero" group-id="2,8,16" node-id="264" stroke="none" target-height="23" target-width="28.800003" target-x="215.7" target-y="639.4"></path><path d="M 172.60 639.40 L 201.40 639.40 L 201.40 662.40 L 172.60 662.40 Z" fill="#a8beef" fill-rule="nonzero" group-id="2,8,16" node-id="266" stroke="none" target-height="23" target-width="28.799988" target-x="172.6" target-y="639.4"></path><path d="M 302.10 639.40 L 330.90 639.40 L 330.90 662.40 L 302.10 662.40 Z" fill="#a8beef" fill-rule="nonzero" group-id="2,8,16" node-id="268" stroke="none" target-height="23" target-width="28.799988" target-x="302.1" target-y="639.4"></path><path d="M 345.30 639.40 L 374.10 639.40 L 374.10 662.40 L 345.30 662.40 Z" fill="#a8beef" fill-rule="nonzero" group-id="2,8,16" node-id="270" stroke="none" target-height="23" target-width="28.800018" target-x="345.3" target-y="639.4"></path></g></g><g node-id="479"><path d="M 634.50 714.30 L 634.50 584.70 L 697.80 584.70 L 697.80 435.10 L 794.30 435.10 L 794.30 505.60 L 850.40 505.60 L 850.40 714.30 Z" fill="#ccdafe" fill-rule="nonzero" group-id="2,9" node-id="276" stroke="none" target-height="279.19998" target-width="215.90002" target-x="634.5" target-y="435.1"></path><g node-id="487"><path d="M 712.20 453.80 L 741.00 453.80 L 741.00 476.80 L 712.20 476.80 Z" fill="#a8beef" fill-rule="nonzero" group-id="2,9,17" node-id="280" stroke="none" target-height="23" target-width="28.799988" target-x="712.2" target-y="453.8"></path><path d="M 752.50 453.80 L 781.30 453.80 L 781.30 476.80 L 752.50 476.80 Z" fill="#a8beef" fill-rule="nonzero" group-id="2,9,17" node-id="282" stroke="none" target-height="23" target-width="28.799988" target-x="752.5" target-y="453.8"></path><path d="M 712.20 597.70 L 741.00 597.70 L 741.00 620.70 L 712.20 620.70 Z" fill="#a8beef" fill-rule="nonzero" group-id="2,9,17" node-id="284" stroke="none" target-height="23" target-width="28.799988" target-x="712.2" target-y="597.7"></path><path d="M 671.90 597.70 L 700.70 597.70 L 700.70 620.70 L 671.90 620.70 Z" fill="#a8beef" fill-rule="nonzero" group-id="2,9,17" node-id="286" stroke="none" target-height="23" target-width="28.799988" target-x="671.9" target-y="597.7"></path><path d="M 671.90 633.70 L 700.70 633.70 L 700.70 656.70 L 671.90 656.70 Z" fill="#a8beef" fill-rule="nonzero" group-id="2,9,17" node-id="288" stroke="none" target-height="23" target-width="28.799988" target-x="671.9" target-y="633.7"></path><path d="M 752.50 597.70 L 781.30 597.70 L 781.30 620.70 L 752.50 620.70 Z" fill="#a8beef" fill-rule="nonzero" group-id="2,9,17" node-id="290" stroke="none" target-height="23" target-width="28.799988" target-x="752.5" target-y="597.7"></path><path d="M 712.20 489.80 L 741.00 489.80 L 741.00 512.80 L 712.20 512.80 Z" fill="#a8beef" fill-rule="nonzero" group-id="2,9,17" node-id="292" stroke="none" target-height="23" target-width="28.799988" target-x="712.2" target-y="489.8"></path><path d="M 752.50 489.80 L 781.30 489.80 L 781.30 512.80 L 752.50 512.80 Z" fill="#a8beef" fill-rule="nonzero" group-id="2,9,17" node-id="294" stroke="none" target-height="23" target-width="28.799988" target-x="752.5" target-y="489.8"></path><path d="M 712.20 525.70 L 741.00 525.70 L 741.00 548.70 L 712.20 548.70 Z" fill="#a8beef" fill-rule="nonzero" group-id="2,9,17" node-id="296" stroke="none" target-height="23" target-width="28.799988" target-x="712.2" target-y="525.7"></path><path d="M 752.50 525.70 L 781.30 525.70 L 781.30 548.70 L 752.50 548.70 Z" fill="#a8beef" fill-rule="nonzero" group-id="2,9,17" node-id="298" stroke="none" target-height="23" target-width="28.799988" target-x="752.5" target-y="525.7"></path><path d="M 792.80 525.70 L 821.60 525.70 L 821.60 548.70 L 792.80 548.70 Z" fill="#a8beef" fill-rule="nonzero" group-id="2,9,17" node-id="300" stroke="none" target-height="23" target-width="28.799988" target-x="792.8" target-y="525.7"></path><path d="M 792.80 561.70 L 821.60 561.70 L 821.60 584.70 L 792.80 584.70 Z" fill="#a8beef" fill-rule="nonzero" group-id="2,9,17" node-id="302" stroke="none" target-height="23" target-width="28.799988" target-x="792.8" target-y="561.7"></path><path d="M 792.80 597.70 L 821.60 597.70 L 821.60 620.70 L 792.80 620.70 Z" fill="#a8beef" fill-rule="nonzero" group-id="2,9,17" node-id="304" stroke="none" target-height="23" target-width="28.799988" target-x="792.8" target-y="597.7"></path><path d="M 792.80 633.70 L 821.60 633.70 L 821.60 656.70 L 792.80 656.70 Z" fill="#a8beef" fill-rule="nonzero" group-id="2,9,17" node-id="306" stroke="none" target-height="23" target-width="28.799988" target-x="792.8" target-y="633.7"></path><path d="M 712.20 561.70 L 741.00 561.70 L 741.00 584.70 L 712.20 584.70 Z" fill="#a8beef" fill-rule="nonzero" group-id="2,9,17" node-id="308" stroke="none" target-height="23" target-width="28.799988" target-x="712.2" target-y="561.7"></path><path d="M 752.50 561.70 L 781.30 561.70 L 781.30 584.70 L 752.50 584.70 Z" fill="#a8beef" fill-rule="nonzero" group-id="2,9,17" node-id="310" stroke="none" target-height="23" target-width="28.799988" target-x="752.5" target-y="561.7"></path><path d="M 712.20 633.70 L 741.00 633.70 L 741.00 656.70 L 712.20 656.70 Z" fill="#a8beef" fill-rule="nonzero" group-id="2,9,17" node-id="312" stroke="none" target-height="23" target-width="28.799988" target-x="712.2" target-y="633.7"></path><path d="M 752.50 633.70 L 781.30 633.70 L 781.30 656.70 L 752.50 656.70 Z" fill="#a8beef" fill-rule="nonzero" group-id="2,9,17" node-id="314" stroke="none" target-height="23" target-width="28.799988" target-x="752.5" target-y="633.7"></path></g></g><g node-id="480"><g node-id="488"><path d="M 92.00 751.70 L 104.60 742.40 L 127.70 727.40 L 155.00 711.30 L 182.20 697.10 L 196.70 690.00 L 212.70 682.80 L 230.10 675.30 L 247.70 668.30 L 266.60 661.50 L 286.90 654.70 L 318.00 645.50 L 334.50 641.30 L 351.80 637.20 L 369.00 633.70 L 386.80 630.50 L 405.20 627.60 L 424.30 625.20 L 443.20 623.30 L 462.80 621.90 L 482.90 621.00 L 503.60 620.70 L 521.10 621.00 L 538.40 621.70 L 555.40 622.80 L 572.20 624.40 L 605.50 628.70 L 637.60 634.30 L 658.70 638.80 L 679.00 643.70 L 698.70 649.00 L 718.30 654.80 L 736.90 660.70 L 772.40 673.30 L 804.70 686.20 L 827.50 696.20 L 847.70 705.60 L 866.70 715.00 L 882.70 723.40 L 908.90 738.10 L 931.00 751.70 L 914.10 746.60 L 888.20 740.50 L 858.60 735.10 L 842.20 732.70 L 823.20 730.40 L 801.20 728.20 L 779.20 726.60 L 754.40 725.30 L 726.60 724.40 L 713.90 724.40 L 701.70 724.90 L 689.90 725.70 L 672.20 727.60 L 654.90 730.10 L 602.40 739.20 L 571.40 744.00 L 544.60 747.00 L 530.90 748.00 L 516.30 748.70 L 500.70 748.90 L 479.00 748.70 L 438.70 746.90 L 419.40 745.60 L 342.60 738.80 L 301.80 735.60 L 257.50 733.10 L 243.00 732.70 L 228.90 732.80 L 215.20 733.20 L 188.40 735.10 L 158.00 738.60 L 127.50 743.70 L 115.70 746.10 L 92.00 751.70 Z" fill="url(#SVGID_1_)" fill-rule="nonzero" group-id="2,10,18" node-id="322" stroke="none" target-height="131" target-width="839" target-x="92" target-y="620.7"></path><path d="M 428.70 624.70 L 423.90 628.70 L 422.30 630.70 L 421.10 632.90 L 420.30 635.10 L 420.10 637.20 L 420.40 639.60 L 421.30 642.00 L 422.90 644.50 L 425.20 647.00 L 430.90 651.20 L 439.40 655.50 L 445.60 657.80 L 452.80 660.10 L 469.40 663.80 L 488.50 666.50 L 498.50 667.40 L 520.10 668.10 L 531.20 667.90 L 551.70 666.50 L 561.70 665.30 L 579.10 662.10 L 587.40 660.00 L 594.60 657.80 L 605.40 653.30 L 609.30 651.20 L 615.00 646.90 L 617.30 644.40 L 618.90 642.00 L 619.80 639.60 L 620.10 637.20 L 619.80 635.10 L 619.10 632.90 L 617.80 630.60 L 599.50 627.70 L 580.80 625.30 L 561.80 623.30 L 542.70 621.80 L 523.20 620.90 L 503.50 620.60 L 484.20 620.90 L 465.40 621.80 L 446.70 623.00 L 428.70 624.70 Z" fill="url(#SVGID_2_)" fill-rule="nonzero" group-id="2,10,18" node-id="324" stroke="none" target-height="47.5" target-width="199.99997" target-x="420.1" target-y="620.6"></path><g node-id="490"><path d="M 386.60 678.00 L 386.70 681.20 L 386.00 682.90 L 384.80 684.90 L 382.90 687.30 L 380.20 689.80 L 376.60 692.60 L 368.40 697.50 L 363.30 700.00 L 352.40 704.40 L 346.20 706.30 L 339.90 708.00 L 328.30 710.30 L 322.70 710.90 L 313.10 711.20 L 308.60 710.80 L 305.00 710.10 L 302.10 709.20 L 300.00 708.20 L 297.50 705.70 L 296.80 704.30 L 296.60 702.80 L 297.40 699.40 L 298.60 697.40 L 300.50 695.10 L 303.20 692.50 L 306.80 689.80 L 315.00 684.80 L 320.10 682.30 L 331.10 678.00 L 337.30 676.00 L 343.60 674.30 L 355.10 672.10 L 360.80 671.40 L 370.30 671.10 L 374.80 671.50 L 378.50 672.20 L 381.40 673.10 L 384.90 675.30 L 386.00 676.60 L 386.60 678.00 Z" fill="#3b6ce4" fill-rule="nonzero" group-id="2,10,18,20" node-id="328" stroke="none" target-height="40.100037" target-width="90.100006" target-x="296.6" target-y="671.1"></path></g><path d="M 561.80 700.50 L 567.40 702.50 L 572.60 704.80 L 577.30 707.40 L 581.20 710.20 L 585.10 714.10 L 587.10 717.80 L 587.30 719.50 L 587.10 721.00 L 586.40 722.40 L 585.30 723.70 L 583.50 724.80 L 579.20 726.20 L 576.10 726.70 L 571.40 726.80 L 566.00 726.30 L 560.40 725.40 L 554.70 723.80 L 549.00 721.90 L 543.90 719.60 L 539.10 716.90 L 535.30 714.20 L 531.30 710.20 L 529.40 706.60 L 529.10 704.90 L 529.30 703.40 L 530.00 702.00 L 531.20 700.70 L 532.90 699.60 L 537.30 698.10 L 540.30 697.70 L 545.00 697.60 L 550.50 698.00 L 556.00 699.00 L 561.80 700.50 Z" fill="#3b6ce4" fill-rule="nonzero" group-id="2,10,18,21" node-id="333" stroke="none" target-height="29.200012" target-width="58.200012" target-x="529.1" target-y="697.6"></path></g><g node-id="489"><g node-id="492"><path d="M 749.20 628.70 L 751.50 626.00 L 753.30 623.10 L 754.60 620.00 L 755.50 616.80 L 755.80 613.50 L 755.60 610.10 L 754.90 607.10 L 753.80 604.30 L 752.40 601.70 L 750.60 599.30 L 746.10 595.30 L 740.40 592.30 L 740.50 589.60 L 740.20 586.70 L 739.30 583.70 L 738.00 581.10 L 736.20 578.80 L 734.10 576.90 L 731.70 575.30 L 729.10 574.10 L 726.30 573.40 L 723.40 573.30 L 720.40 573.60 L 717.50 574.50 L 714.90 575.80 L 712.60 577.60 L 710.70 579.70 L 709.10 582.10 L 708.00 584.70 L 707.30 587.50 L 707.20 590.40 L 707.50 593.50 L 708.60 596.80 L 706.10 599.00 L 702.20 603.90 L 699.60 609.40 L 698.90 612.30 L 698.70 615.30 L 698.90 618.40 L 699.50 621.20 L 701.80 626.20 L 703.40 628.50 L 700.90 630.40 L 697.30 634.40 L 696.00 636.70 L 695.30 639.00 L 695.00 641.50 L 695.30 644.10 L 696.10 646.50 L 697.50 648.90 L 699.20 651.00 L 701.40 653.00 L 704.20 654.90 L 710.40 657.90 L 717.90 659.80 L 721.90 660.30 L 726.20 660.50 L 734.50 659.80 L 738.30 659.00 L 745.30 656.50 L 751.00 653.00 L 753.20 651.00 L 754.90 648.90 L 756.30 646.50 L 757.10 644.10 L 757.40 641.50 L 757.10 639.10 L 756.40 636.80 L 755.20 634.50 L 753.60 632.50 L 749.20 628.70 Z" fill="url(#SVGID_3_)" fill-rule="nonzero" group-id="2,10,19,22" node-id="341" stroke="none" target-height="87.20001" target-width="62.400024" target-x="695" target-y="573.3"></path><g node-id="494"><g node-id="496"><path d="M 725.50 687.00 L 724.40 685.30 L 724.20 684.10 L 726.30 660.80 L 726.50 652.40 L 726.40 640.50 L 725.80 632.30 L 723.90 620.20 L 724.00 619.00 L 724.70 617.00 L 725.50 616.40 L 726.10 616.40 L 726.80 617.00 L 727.30 618.40 L 729.20 630.80 L 730.00 643.70 L 730.10 652.60 L 729.00 672.10 L 727.70 684.50 L 726.90 686.70 L 726.20 687.10 L 725.50 687.00 Z" fill="#ff7f2a" fill-rule="nonzero" group-id="2,10,19,22,24,26" node-id="347" stroke="none" target-height="70.69995" target-width="6.199951" target-x="723.9" target-y="616.4"></path></g></g></g><g node-id="493"><path d="M 805.10 675.40 L 806.90 673.10 L 808.20 670.50 L 808.70 668.60 L 808.80 664.80 L 808.20 662.50 L 807.30 660.50 L 805.90 658.60 L 804.30 657.10 L 800.10 654.60 L 800.00 651.40 L 799.50 649.70 L 797.70 646.90 L 795.80 645.30 L 793.70 644.20 L 790.40 643.70 L 788.70 643.90 L 785.50 645.20 L 784.30 646.20 L 782.70 648.10 L 781.60 650.30 L 781.20 653.50 L 782.00 657.20 L 778.60 660.70 L 777.50 662.80 L 776.70 664.90 L 776.40 667.20 L 776.50 669.50 L 777.00 671.60 L 777.90 673.50 L 779.10 675.30 L 777.00 676.90 L 775.60 678.60 L 774.60 680.60 L 774.30 682.70 L 774.60 684.60 L 775.40 686.40 L 776.70 688.20 L 778.40 689.60 L 780.50 690.90 L 785.80 692.80 L 792.10 693.50 L 798.40 692.80 L 803.70 690.90 L 807.50 688.10 L 808.80 686.40 L 809.60 684.60 L 809.90 682.70 L 809.50 680.70 L 808.50 678.70 L 807.10 677.00 L 805.10 675.40 Z" fill="url(#SVGID_4_)" fill-rule="nonzero" group-id="2,10,19,23" node-id="354" stroke="none" target-height="49.799988" target-width="35.600037" target-x="774.3" target-y="643.7"></path><g node-id="495"><g node-id="497"><path d="M 791.60 708.70 L 791.00 707.80 L 790.90 706.20 L 791.90 696.40 L 792.10 682.20 L 790.70 669.80 L 791.10 668.70 L 791.50 668.30 L 791.90 668.40 L 792.60 669.50 L 793.70 676.60 L 794.20 689.00 L 793.80 697.00 L 792.80 707.20 L 792.40 708.50 L 791.60 708.70 Z" fill="#ff7f2a" fill-rule="nonzero" group-id="2,10,19,23,25,27" node-id="360" stroke="none" target-height="40.400024" target-width="3.5" target-x="790.7" target-y="668.3"></path></g></g></g></g></g></g><g node-id="473"><path d="M 716.40 552.80 L 306.60 552.80 L 304.70 552.60 L 301.50 551.40 L 298.90 549.20 L 297.90 547.80 L 296.70 544.60 L 296.50 542.70 L 296.50 282.90 L 297.10 279.40 L 298.90 276.40 L 301.50 274.20 L 304.70 273.00 L 716.40 272.80 L 718.30 273.00 L 721.50 274.20 L 722.90 275.20 L 725.10 277.80 L 726.30 281.00 L 726.50 282.90 L 726.50 542.70 L 725.90 546.20 L 724.10 549.20 L 721.50 551.40 L 719.90 552.20 L 716.40 552.80 Z" fill="#3b6ce4" fill-rule="nonzero" group-id="3" node-id="370" stroke="none" target-height="280" target-width="430" target-x="296.5" target-y="272.8"></path><path d="M 726.50 322.80 L 296.50 322.80 L 296.70 281.00 L 297.90 277.80 L 300.10 275.20 L 303.00 273.40 L 306.50 272.80 L 718.30 273.00 L 720.00 273.40 L 722.90 275.20 L 725.10 277.80 L 726.30 281.00 L 726.50 322.80 Z" fill="#5d94fa" fill-rule="nonzero" group-id="3" node-id="372" stroke="none" target-height="50" target-width="430" target-x="296.5" target-y="272.8"></path><path d="M 338.50 306.80 L 324.50 306.80 L 322.40 306.50 L 320.50 305.70 L 318.90 304.50 L 317.60 302.80 L 316.80 300.90 L 316.50 298.80 L 316.80 296.70 L 317.60 294.80 L 318.90 293.10 L 320.50 291.90 L 322.40 291.10 L 324.50 290.80 L 338.50 290.80 L 340.60 291.10 L 342.50 291.90 L 344.20 293.20 L 345.40 294.80 L 346.20 296.70 L 346.50 298.80 L 346.20 300.90 L 345.40 302.80 L 344.10 304.50 L 342.50 305.70 L 340.60 306.50 L 338.50 306.80 Z" fill="#ffffff" fill-rule="nonzero" group-id="3" node-id="374" stroke="none" target-height="16" target-width="30" target-x="316.5" target-y="290.8"></path><path d="M 634.50 306.80 L 364.50 306.80 L 362.40 306.50 L 360.50 305.70 L 358.90 304.50 L 357.60 302.80 L 356.80 300.90 L 356.50 298.80 L 356.80 296.70 L 357.60 294.80 L 358.90 293.10 L 360.50 291.90 L 362.40 291.10 L 364.50 290.80 L 634.60 290.80 L 636.70 291.10 L 638.60 291.90 L 640.20 293.20 L 641.50 294.80 L 642.30 296.70 L 642.60 298.80 L 642.30 300.90 L 641.50 302.80 L 640.20 304.40 L 638.60 305.70 L 636.70 306.50 L 634.50 306.80 Z" fill="#ffffff" fill-rule="nonzero" group-id="3" node-id="376" stroke="none" target-height="16" target-width="286.09998" target-x="356.5" target-y="290.8"></path><g node-id="481"><path d="M 689.40 281.80 L 689.20 283.20 L 687.90 285.30 L 685.80 286.60 L 684.40 286.80 L 681.90 286.10 L 680.10 284.30 L 679.60 283.20 L 679.40 281.80 L 680.10 279.30 L 681.90 277.50 L 684.40 276.80 L 685.80 277.00 L 687.90 278.30 L 689.20 280.40 L 689.40 281.80 Z" fill="#ffffff" fill-rule="nonzero" group-id="3,11" node-id="380" stroke="none" target-height="10" target-width="10" target-x="679.4" target-y="276.8"></path><path d="M 705.40 281.80 L 705.20 283.20 L 703.90 285.30 L 701.80 286.60 L 700.40 286.80 L 699.00 286.60 L 696.90 285.30 L 695.60 283.20 L 695.40 281.80 L 695.60 280.40 L 696.90 278.30 L 699.00 277.00 L 700.40 276.80 L 701.80 277.00 L 703.90 278.30 L 705.20 280.40 L 705.40 281.80 Z" fill="#ffffff" fill-rule="nonzero" group-id="3,11" node-id="382" stroke="none" target-height="10" target-width="10" target-x="695.4" target-y="276.8"></path><path d="M 721.40 281.80 L 721.20 283.20 L 719.90 285.30 L 717.80 286.60 L 716.40 286.80 L 713.90 286.10 L 712.10 284.30 L 711.60 283.20 L 711.40 281.80 L 712.10 279.30 L 713.90 277.50 L 716.40 276.80 L 717.80 277.00 L 719.90 278.30 L 721.20 280.40 L 721.40 281.80 Z" fill="#ffffff" fill-rule="nonzero" group-id="3,11" node-id="384" stroke="none" target-height="10" target-width="10" target-x="711.4" target-y="276.8"></path></g><g node-id="482"><path d="M 461.90 466.20 L 448.20 466.20 L 448.20 496.00 L 426.90 496.00 L 426.90 466.20 L 377.90 466.20 L 377.90 450.70 L 420.80 381.10 L 448.20 381.10 L 448.20 448.90 L 461.90 448.90 L 461.90 466.20 Z M 426.90 448.80 L 426.90 425.30 L 427.80 401.50 L 427.20 401.50 L 418.00 420.20 L 400.10 448.80 L 426.90 448.80 Z" fill="#285bbf" fill-rule="nonzero" group-id="3,12" node-id="389" stroke="none" target-height="114.899994" target-width="84" target-x="377.9" target-y="381.1"></path><path d="M 473.10 438.10 L 473.40 429.80 L 474.00 422.50 L 475.00 416.00 L 476.40 410.20 L 478.00 405.10 L 480.20 399.80 L 482.70 395.30 L 485.40 391.40 L 488.30 388.10 L 491.50 385.40 L 495.10 383.10 L 498.90 381.30 L 503.00 380.00 L 507.40 379.20 L 512.10 378.90 L 516.80 379.20 L 521.10 380.00 L 525.20 381.30 L 529.00 383.10 L 532.50 385.40 L 535.70 388.20 L 538.70 391.50 L 541.40 395.30 L 543.90 399.90 L 546.10 405.20 L 547.70 410.30 L 549.10 416.10 L 550.10 422.60 L 550.70 429.90 L 551.00 438.10 L 550.80 446.30 L 550.10 453.70 L 549.10 460.20 L 547.70 466.10 L 546.10 471.30 L 543.90 476.60 L 541.40 481.30 L 538.70 485.20 L 535.80 488.60 L 532.60 491.40 L 529.00 493.80 L 525.20 495.70 L 521.10 497.10 L 516.80 497.90 L 512.10 498.20 L 507.40 497.90 L 503.00 497.10 L 499.00 495.70 L 495.10 493.80 L 491.50 491.40 L 488.40 488.60 L 485.40 485.20 L 482.70 481.30 L 480.20 476.60 L 478.00 471.30 L 476.40 466.10 L 475.00 460.20 L 474.00 453.70 L 473.30 446.30 L 473.10 438.10 Z M 529.30 438.10 L 528.70 423.40 L 526.90 412.70 L 525.70 408.50 L 524.30 405.30 L 522.60 402.30 L 520.70 400.10 L 518.80 398.60 L 516.70 397.40 L 514.40 396.80 L 512.00 396.60 L 509.60 396.80 L 507.30 397.40 L 505.10 398.60 L 503.20 400.10 L 501.40 402.30 L 499.60 405.30 L 498.20 408.50 L 497.00 412.70 L 495.20 423.40 L 494.60 438.10 L 494.80 446.20 L 495.90 458.30 L 497.00 463.80 L 498.20 468.10 L 499.60 471.40 L 501.40 474.50 L 503.20 476.70 L 505.10 478.30 L 507.30 479.50 L 509.60 480.20 L 512.00 480.40 L 514.40 480.20 L 516.70 479.50 L 518.90 478.30 L 520.80 476.70 L 522.60 474.40 L 524.40 471.30 L 525.70 468.00 L 526.90 463.80 L 528.00 458.30 L 529.10 446.20 L 529.30 438.10 Z" fill="#285bbf" fill-rule="nonzero" group-id="3,12" node-id="391" stroke="none" target-height="119.30002" target-width="77.899994" target-x="473.1" target-y="378.9"></path><path d="M 645.00 466.20 L 631.30 466.20 L 631.30 496.00 L 610.00 496.00 L 610.00 466.20 L 561.00 466.20 L 561.00 450.70 L 603.90 381.10 L 631.30 381.10 L 631.30 448.90 L 645.00 448.90 L 645.00 466.20 Z M 610.00 448.80 L 610.00 425.30 L 610.90 401.50 L 610.30 401.50 L 601.10 420.20 L 583.20 448.80 L 610.00 448.80 Z" fill="#285bbf" fill-rule="nonzero" group-id="3,12" node-id="393" stroke="none" target-height="114.899994" target-width="84" target-x="561" target-y="381.1"></path></g><g node-id="483"><path d="M 461.70 459.80 L 448.00 459.80 L 448.00 489.60 L 426.70 489.60 L 426.70 459.80 L 377.70 459.80 L 377.70 444.30 L 420.60 374.70 L 448.00 374.70 L 448.00 442.50 L 461.70 442.50 L 461.70 459.80 Z M 426.70 442.40 L 426.70 418.90 L 427.60 395.10 L 427.00 395.10 L 417.80 413.80 L 400.00 442.40 L 426.70 442.40 Z" fill="#ffffff" fill-rule="nonzero" group-id="3,13" node-id="398" stroke="none" target-height="114.899994" target-width="84" target-x="377.7" target-y="374.7"></path><path d="M 472.90 431.60 L 473.20 423.30 L 473.80 416.00 L 474.80 409.50 L 476.20 403.70 L 477.80 398.60 L 480.00 393.30 L 482.50 388.80 L 485.20 384.90 L 488.10 381.60 L 491.30 378.90 L 494.90 376.60 L 498.70 374.80 L 502.80 373.50 L 507.20 372.70 L 511.90 372.40 L 516.60 372.70 L 520.90 373.50 L 525.00 374.80 L 528.80 376.60 L 532.30 378.90 L 535.50 381.70 L 538.50 385.00 L 541.20 388.80 L 543.70 393.40 L 545.90 398.70 L 547.50 403.80 L 548.90 409.60 L 549.90 416.10 L 550.50 423.40 L 550.80 431.60 L 550.60 439.80 L 549.90 447.20 L 548.90 453.70 L 547.50 459.60 L 545.90 464.80 L 543.70 470.10 L 541.20 474.80 L 538.50 478.70 L 535.60 482.10 L 532.40 484.90 L 528.80 487.30 L 525.00 489.20 L 520.90 490.60 L 516.60 491.40 L 511.90 491.70 L 507.20 491.40 L 502.80 490.60 L 498.80 489.30 L 494.90 487.40 L 491.30 485.00 L 488.20 482.20 L 485.20 478.80 L 482.50 474.80 L 480.00 470.20 L 477.80 464.80 L 476.20 459.60 L 474.80 453.80 L 473.80 447.20 L 473.10 439.80 L 472.90 431.60 Z M 529.10 431.60 L 528.50 416.90 L 526.70 406.20 L 525.50 402.00 L 524.10 398.80 L 522.40 395.80 L 520.50 393.60 L 518.60 392.10 L 516.50 390.90 L 514.20 390.30 L 511.80 390.10 L 509.40 390.30 L 507.10 390.90 L 504.90 392.10 L 503.00 393.60 L 501.20 395.80 L 499.40 398.80 L 498.00 402.00 L 496.80 406.20 L 495.00 416.90 L 494.40 431.60 L 494.60 439.70 L 495.70 451.80 L 496.80 457.30 L 498.00 461.60 L 499.40 464.90 L 501.20 468.00 L 503.00 470.20 L 504.90 471.80 L 507.10 473.00 L 509.40 473.70 L 511.80 473.90 L 514.20 473.70 L 516.50 473.00 L 518.70 471.80 L 520.60 470.30 L 522.40 468.00 L 524.20 464.90 L 525.50 461.60 L 526.70 457.30 L 527.80 451.90 L 528.90 439.70 L 529.10 431.60 Z" fill="#ffffff" fill-rule="nonzero" group-id="3,13" node-id="400" stroke="none" target-height="119.30002" target-width="77.899994" target-x="472.9" target-y="372.4"></path><path d="M 644.80 459.80 L 631.10 459.80 L 631.10 489.60 L 609.80 489.60 L 609.80 459.80 L 560.80 459.80 L 560.80 444.30 L 603.70 374.70 L 631.10 374.70 L 631.10 442.50 L 644.80 442.50 L 644.80 459.80 Z M 609.80 442.40 L 609.80 418.90 L 610.70 395.10 L 610.10 395.10 L 600.90 413.80 L 583.00 442.40 L 609.80 442.40 Z" fill="#ffffff" fill-rule="nonzero" group-id="3,13" node-id="402" stroke="none" target-height="114.899994" target-width="84" target-x="560.8" target-y="374.7"></path></g><g node-id="484"><path d="M 636.70 365.00 L 635.10 365.10 L 634.10 366.30 L 634.10 367.90 L 635.20 368.90 L 636.80 368.80 L 637.80 367.60 L 637.90 366.00 L 636.70 365.00 Z" fill="#285bbf" fill-rule="nonzero" group-id="3,14" node-id="407" stroke="none" target-height="3.899994" target-width="3.8000488" target-x="634.1" target-y="365"></path><path d="M 644.20 358.40 L 644.40 356.00 L 644.00 355.10 L 643.00 353.90 L 641.40 353.00 L 639.60 352.70 L 638.00 352.90 L 636.40 353.50 L 637.50 355.60 L 638.90 355.20 L 640.20 355.30 L 641.10 355.90 L 641.40 356.60 L 641.30 357.60 L 640.70 358.40 L 637.50 360.50 L 636.60 361.50 L 636.00 363.00 L 638.60 363.90 L 639.20 362.70 L 643.50 359.60 L 644.20 358.40 Z" fill="#285bbf" fill-rule="nonzero" group-id="3,14" node-id="409" stroke="none" target-height="11.199982" target-width="8.400024" target-x="636" target-y="352.7"></path><path d="M 657.30 366.40 L 655.40 364.60 L 653.00 363.80 L 652.60 366.10 L 654.00 366.50 L 654.90 367.40 L 655.20 368.10 L 655.00 369.40 L 653.50 370.20 L 649.60 370.00 L 648.30 370.20 L 646.90 371.10 L 648.40 373.40 L 649.70 372.80 L 655.00 372.90 L 656.30 372.40 L 657.30 371.50 L 658.20 369.70 L 658.10 368.10 L 657.30 366.40 Z" fill="#285bbf" fill-rule="nonzero" group-id="3,14" node-id="411" stroke="none" target-height="9.600006" target-width="11.299988" target-x="646.9" target-y="363.8"></path><path d="M 643.50 372.70 L 642.90 373.30 L 642.50 374.70 L 643.40 376.10 L 644.80 376.40 L 646.20 375.40 L 646.50 374.00 L 645.70 372.70 L 644.30 372.40 L 643.50 372.70 Z" fill="#285bbf" fill-rule="nonzero" group-id="3,14" node-id="413" stroke="none" target-height="4" target-width="4" target-x="642.5" target-y="372.4"></path><path d="M 622.10 364.10 L 620.90 365.00 L 620.60 366.60 L 621.00 367.40 L 622.20 368.20 L 623.70 367.90 L 624.50 366.60 L 624.50 365.70 L 623.60 364.40 L 622.10 364.10 Z" fill="#285bbf" fill-rule="nonzero" group-id="3,14" node-id="415" stroke="none" target-height="4.100006" target-width="3.9000244" target-x="620.6" target-y="364.1"></path><path d="M 619.60 351.50 L 617.30 352.60 L 615.60 354.60 L 617.70 355.80 L 618.60 354.70 L 619.80 354.10 L 620.80 354.10 L 621.50 354.60 L 622.00 355.40 L 622.00 356.40 L 620.40 359.90 L 620.10 361.30 L 620.40 362.90 L 623.10 362.30 L 622.90 360.90 L 624.90 356.00 L 624.90 354.60 L 624.40 353.30 L 623.00 351.80 L 621.40 351.30 L 619.60 351.50 Z" fill="#285bbf" fill-rule="nonzero" group-id="3,14" node-id="417" stroke="none" target-height="11.600006" target-width="9.300049" target-x="615.6" target-y="351.3"></path></g><g node-id="485"><path d="M 636.70 363.70 L 635.10 363.80 L 634.10 365.00 L 634.10 366.60 L 635.20 367.60 L 636.80 367.50 L 637.80 366.30 L 637.90 364.80 L 636.70 363.70 Z" fill="#efbb81" fill-rule="nonzero" group-id="3,15" node-id="422" stroke="none" target-height="3.899994" target-width="3.8000488" target-x="634.1" target-y="363.7"></path><path d="M 644.20 357.20 L 644.40 354.80 L 644.00 353.90 L 643.00 352.70 L 641.40 351.80 L 639.60 351.50 L 638.00 351.70 L 636.40 352.30 L 637.50 354.40 L 638.90 354.00 L 640.20 354.10 L 641.10 354.70 L 641.40 355.40 L 641.30 356.40 L 640.70 357.20 L 637.50 359.30 L 636.60 360.30 L 636.00 361.80 L 638.60 362.70 L 639.20 361.40 L 643.50 358.40 L 644.20 357.20 Z" fill="#efbb81" fill-rule="nonzero" group-id="3,15" node-id="424" stroke="none" target-height="11.200012" target-width="8.400024" target-x="636" target-y="351.5"></path><path d="M 657.30 365.20 L 655.40 363.40 L 653.00 362.60 L 652.60 364.90 L 654.00 365.30 L 654.90 366.20 L 655.20 366.90 L 655.00 368.20 L 653.50 369.00 L 649.60 368.80 L 648.30 369.00 L 646.90 369.90 L 648.40 372.20 L 649.70 371.60 L 655.00 371.70 L 656.30 371.20 L 657.30 370.30 L 658.20 368.40 L 658.10 366.80 L 657.30 365.20 Z" fill="#efbb81" fill-rule="nonzero" group-id="3,15" node-id="426" stroke="none" target-height="9.600006" target-width="11.299988" target-x="646.9" target-y="362.6"></path><path d="M 643.50 371.40 L 642.90 372.00 L 642.50 373.40 L 643.40 374.80 L 644.80 375.10 L 646.20 374.10 L 646.50 372.70 L 645.70 371.40 L 644.30 371.10 L 643.50 371.40 Z" fill="#efbb81" fill-rule="nonzero" group-id="3,15" node-id="428" stroke="none" target-height="4" target-width="4" target-x="642.5" target-y="371.1"></path><path d="M 622.10 362.80 L 620.90 363.70 L 620.60 365.30 L 621.00 366.10 L 622.20 366.90 L 623.70 366.60 L 624.50 365.30 L 624.50 364.40 L 623.60 363.10 L 622.10 362.80 Z" fill="#efbb81" fill-rule="nonzero" group-id="3,15" node-id="430" stroke="none" target-height="4.100006" target-width="3.9000244" target-x="620.6" target-y="362.8"></path><path d="M 619.60 350.20 L 617.30 351.30 L 615.60 353.30 L 617.70 354.50 L 618.60 353.40 L 619.80 352.80 L 620.80 352.80 L 621.50 353.30 L 622.00 354.10 L 622.00 355.10 L 620.40 358.60 L 620.10 360.00 L 620.40 361.60 L 623.10 361.00 L 622.90 359.60 L 624.90 354.70 L 624.90 353.30 L 624.40 352.00 L 623.00 350.50 L 621.40 350.00 L 619.60 350.20 Z" fill="#efbb81" fill-rule="nonzero" group-id="3,15" node-id="432" stroke="none" target-height="11.600006" target-width="9.300049" target-x="615.6" target-y="350"></path></g></g><g node-id="474"><path d="M 549.50 576.40 L 472.60 576.20 L 471.60 575.20 L 471.40 574.40 L 471.40 532.30 L 471.60 531.50 L 472.60 530.50 L 550.30 530.50 L 551.30 531.50 L 551.50 532.30 L 551.50 574.40 L 550.90 575.80 L 549.50 576.40 Z" fill="#353535" fill-rule="nonzero" group-id="4" node-id="438" stroke="none" target-height="45.900024" target-width="80.100006" target-x="471.4" target-y="530.5"></path><path d="M 473.50 533.40 L 549.50 533.40 L 549.50 573.40 L 473.50 573.40 Z" fill="#ffffff" fill-rule="nonzero" group-id="4" node-id="440" stroke="none" target-height="40" target-width="76" target-x="473.5" target-y="533.4"></path></g><g node-id="475"><path d="M 508.70 559.90 L 517.70 559.90 L 517.70 575.30 L 507.90 575.30 Z" fill="#fdcaca" fill-rule="nonzero" group-id="5" node-id="445" stroke="none" target-height="15.399963" target-width="9.800018" target-x="507.9" target-y="559.9"></path><path d="M 501.60 550.50 L 499.80 550.80 L 499.00 551.80 L 499.00 553.80 L 499.50 556.00 L 500.10 557.30 L 500.70 557.60 L 501.40 557.50 L 503.30 556.30 L 501.60 550.50 Z" fill="#fdcaca" fill-rule="nonzero" group-id="5" node-id="447" stroke="none" target-height="7.0999756" target-width="4.299988" target-x="499" target-y="550.5"></path><path d="M 520.50 556.40 L 523.60 557.40 L 524.20 557.20 L 524.90 556.40 L 525.50 555.10 L 525.90 553.70 L 526.00 551.20 L 525.70 550.80 L 524.90 550.60 L 522.80 550.50 L 521.80 552.20 L 520.50 556.40 Z" fill="#fdcaca" fill-rule="nonzero" group-id="5" node-id="449" stroke="none" target-height="6.9000244" target-width="5.5" target-x="520.5" target-y="550.5"></path><path d="M 490.70 617.80 L 484.00 615.20 L 481.20 614.50 L 476.60 614.20 L 473.80 615.20 L 470.10 618.00 L 468.30 619.90 L 467.50 621.80 L 467.50 622.60 L 469.30 628.90 L 471.20 634.10 L 474.20 640.60 L 481.20 649.60 L 482.60 651.90 L 485.70 660.40 L 488.40 665.70 L 491.30 669.00 L 494.00 670.20 L 507.30 671.80 L 520.40 672.60 L 527.20 672.10 L 529.10 671.50 L 531.60 669.90 L 535.30 666.60 L 538.10 662.80 L 540.70 655.60 L 548.00 644.90 L 550.30 640.90 L 552.60 633.60 L 554.00 627.20 L 552.90 624.20 L 550.60 620.60 L 548.50 618.20 L 547.70 618.00 L 546.40 618.20 L 543.30 619.30 L 540.30 620.90 L 537.90 622.70 L 535.50 623.00 L 519.30 623.70 L 490.70 624.00 L 490.70 617.80 Z" fill="#274da0" fill-rule="nonzero" group-id="5" node-id="451" stroke="none" target-height="58.399963" target-width="86.5" target-x="467.5" target-y="614.2"></path><path d="M 526.40 526.90 L 525.10 525.30 L 523.80 524.40 L 522.50 523.90 L 520.30 523.90 L 518.10 524.50 L 516.10 525.50 L 512.70 527.90 L 507.90 527.40 L 504.60 528.10 L 500.30 530.50 L 499.10 531.70 L 498.30 533.10 L 497.80 535.20 L 497.20 541.50 L 497.40 546.20 L 498.60 549.50 L 499.40 550.40 L 500.30 551.10 L 501.60 551.20 L 501.70 556.10 L 503.00 560.40 L 504.00 561.90 L 505.50 563.40 L 507.30 564.60 L 508.70 565.30 L 511.70 565.90 L 514.00 565.80 L 516.40 565.10 L 519.40 563.10 L 520.80 561.30 L 521.30 559.90 L 523.10 550.40 L 524.70 548.90 L 525.60 547.20 L 527.60 540.90 L 528.20 537.10 L 528.20 533.40 L 527.90 530.90 L 526.40 526.90 Z" fill="#63393f" fill-rule="nonzero" group-id="5" node-id="453" stroke="none" target-height="42" target-width="31" target-x="497.2" target-y="523.9"></path><path d="M 555.20 613.90 L 548.70 594.20 L 543.70 583.20 L 541.90 580.30 L 540.80 579.10 L 529.10 573.70 L 527.30 572.60 L 524.20 569.60 L 521.10 567.60 L 515.80 568.30 L 511.20 568.30 L 505.20 567.30 L 504.40 567.40 L 502.60 569.70 L 500.80 571.10 L 494.20 573.20 L 487.70 576.70 L 481.80 580.40 L 479.50 583.10 L 478.20 585.40 L 476.70 589.00 L 469.50 613.00 L 469.20 614.60 L 469.40 615.80 L 470.50 617.50 L 474.90 614.50 L 478.10 614.10 L 483.30 615.00 L 488.00 616.60 L 488.20 623.20 L 488.00 626.00 L 487.30 628.90 L 485.20 634.20 L 484.70 636.40 L 484.20 643.20 L 484.50 647.50 L 485.80 655.40 L 486.90 658.60 L 488.00 660.60 L 489.70 662.70 L 494.70 667.40 L 496.70 668.50 L 511.80 669.90 L 519.00 670.10 L 524.40 669.60 L 527.50 668.10 L 529.00 666.90 L 532.80 662.50 L 535.50 658.00 L 539.60 649.00 L 540.80 644.40 L 540.90 642.10 L 540.50 640.20 L 538.40 636.30 L 535.50 633.30 L 536.50 622.60 L 538.10 622.20 L 539.90 620.70 L 543.00 619.10 L 546.10 618.00 L 548.10 618.00 L 550.00 620.00 L 553.40 619.00 L 554.20 618.40 L 555.40 616.50 L 555.20 613.90 Z M 486.10 604.50 L 487.70 612.50 L 483.70 610.40 L 486.10 604.50 Z M 537.60 613.10 L 538.40 604.60 L 541.10 611.30 L 537.60 613.10 Z" fill="#dbeefe" fill-rule="nonzero" group-id="5" node-id="455" stroke="none" target-height="102.79999" target-width="86.20001" target-x="469.2" target-y="567.3"></path><path d="M 512.30 572.10 L 519.10 571.80 L 523.40 570.30 L 524.40 569.70 L 521.20 567.70 L 513.00 568.40 L 504.50 567.20 L 501.80 570.30 L 508.00 571.60 L 512.30 572.10 Z" fill="#b9d8ed" fill-rule="nonzero" group-id="5" node-id="457" stroke="none" target-height="4.8999634" target-width="22.600037" target-x="501.8" target-y="567.2"></path><path d="M 483.30 617.40 L 488.30 623.40 L 488.20 619.30 Z" fill="#173872" fill-rule="nonzero" group-id="5" node-id="459" stroke="none" target-height="6" target-width="5" target-x="483.3" target-y="617.4"></path><path d="M 536.40 625.90 L 539.40 623.90 L 536.20 627.90 Z" fill="#173872" fill-rule="nonzero" group-id="5" node-id="461" stroke="none" target-height="4" target-width="3.2000122" target-x="536.2" target-y="623.9"></path><path d="M 484.00 609.60 L 479.60 611.70 L 485.30 611.20 L 483.80 610.40 Z" fill="#b9d8ed" fill-rule="nonzero" group-id="5" node-id="463" stroke="none" target-height="2.1000366" target-width="5.6999817" target-x="479.6" target-y="609.6"></path><path d="M 540.40 609.60 L 544.40 611.80 L 539.90 611.80 L 541.00 611.20 Z" fill="#b9d8ed" fill-rule="nonzero" group-id="5" node-id="465" stroke="none" target-height="2.2000122" target-width="4.5" target-x="539.9" target-y="609.6"></path><path d="M 485.90 605.20 L 486.10 604.50 L 486.30 605.20 L 485.90 596.40 Z" fill="#b9d8ed" fill-rule="nonzero" group-id="5" node-id="467" stroke="none" target-height="8.799988" target-width="0.3999939" target-x="485.9" target-y="596.4"></path><path d="M 538.20 605.80 L 537.60 593.10 L 538.90 606.10 L 538.30 604.60 Z" fill="#b9d8ed" fill-rule="nonzero" group-id="5" node-id="469" stroke="none" target-height="13" target-width="1.3000488" target-x="537.6" target-y="593.1"></path></g></svg>