<?xml version="1.0" standalone="no"?><!DOCTYPE svg PUBLIC "-//W3C//DTD SVG 1.1//EN" "http://www.w3.org/Graphics/SVG/1.1/DTD/svg11.dtd"><svg height="1024" node-id="1" sillyvg="true" template-height="1024" template-width="1024" version="1.1" viewBox="0 0 1024 1024" width="1024" xmlns="http://www.w3.org/2000/svg" xmlns:xlink="http://www.w3.org/1999/xlink"><defs node-id="120"><linearGradient gradientUnits="objectBoundingBox" id="SVGID_1_" node-id="64" spreadMethod="pad" x1="503.2872" x2="511.6443" y1="621.5941" y2="753.2931"><stop offset="0" stop-color="#91b3ff"></stop><stop offset="0.4022" stop-color="#6791f2"></stop><stop offset="0.7939" stop-color="#3b6ce4"></stop></linearGradient><linearGradient gradientUnits="objectBoundingBox" id="SVGID_2_" node-id="69" spreadMethod="pad" x1="518.9922" x2="522.9752" y1="618.6093" y2="681.3766"><stop offset="0" stop-color="#91b3ff"></stop><stop offset="0.2484" stop-color="#6795ec"></stop><stop offset="0.7939" stop-color="#004cbf"></stop></linearGradient><linearGradient gradientUnits="objectBoundingBox" id="SVGID_3_" node-id="78" spreadMethod="pad" x1="743.467" x2="706.5143" y1="649.3796" y2="599.0943"><stop offset="0" stop-color="#efbb81"></stop><stop offset="0.5011" stop-color="#f79e57"></stop><stop offset="1" stop-color="#ff7f2a"></stop></linearGradient><linearGradient gradientUnits="objectBoundingBox" id="SVGID_4_" node-id="87" spreadMethod="pad" x1="801.7973" x2="780.7144" y1="686.9087" y2="658.2191"><stop offset="0" stop-color="#efbb81"></stop><stop offset="0.5011" stop-color="#f79e57"></stop><stop offset="1" stop-color="#ff7f2a"></stop></linearGradient><linearGradient gradientUnits="objectBoundingBox" id="SVGID_5_" node-id="97" spreadMethod="pad" x1="420.7707" x2="420.7707" y1="404.4561" y2="547.9188"><stop offset="0" stop-color="#91b3ff"></stop><stop offset="0.5066" stop-color="#6791f2"></stop><stop offset="1" stop-color="#3b6ce4"></stop></linearGradient><linearGradient gradientUnits="objectBoundingBox" id="SVGID_6_" node-id="102" spreadMethod="pad" x1="572.2895" x2="579.7741" y1="404.168" y2="575.1702"><stop offset="0" stop-color="#91b3ff"></stop><stop offset="0.5066" stop-color="#6791f2"></stop><stop offset="1" stop-color="#3b6ce4"></stop></linearGradient></defs><g node-id="374"><g node-id="376"><path d="M 162.50 716.50 L 162.50 510.70 L 245.00 510.70 L 245.00 362.50 L 385.60 362.50 L 385.60 716.50 Z" fill="#ccdafe" fill-rule="nonzero" group-id="1,3" node-id="177" stroke="none" target-height="354" target-width="223.1" target-x="162.5" target-y="362.5"></path><g node-id="379"><path d="M 258.90 386.90 L 287.70 386.90 L 287.70 409.90 L 258.90 409.90 Z" fill="#a8beef" fill-rule="nonzero" group-id="1,3,6" node-id="181" stroke="none" target-height="23" target-width="28.800018" target-x="258.9" target-y="386.9"></path><path d="M 302.10 386.90 L 330.90 386.90 L 330.90 409.90 L 302.10 409.90 Z" fill="#a8beef" fill-rule="nonzero" group-id="1,3,6" node-id="183" stroke="none" target-height="23" target-width="28.799988" target-x="302.1" target-y="386.9"></path><path d="M 345.30 386.90 L 374.10 386.90 L 374.10 409.90 L 345.30 409.90 Z" fill="#a8beef" fill-rule="nonzero" group-id="1,3,6" node-id="185" stroke="none" target-height="23" target-width="28.800018" target-x="345.3" target-y="386.9"></path><path d="M 258.90 422.90 L 287.70 422.90 L 287.70 445.90 L 258.90 445.90 Z" fill="#a8beef" fill-rule="nonzero" group-id="1,3,6" node-id="187" stroke="none" target-height="23" target-width="28.800018" target-x="258.9" target-y="422.9"></path><path d="M 302.10 422.90 L 330.90 422.90 L 330.90 445.90 L 302.10 445.90 Z" fill="#a8beef" fill-rule="nonzero" group-id="1,3,6" node-id="189" stroke="none" target-height="23" target-width="28.799988" target-x="302.1" target-y="422.9"></path><path d="M 345.30 422.90 L 374.10 422.90 L 374.10 445.90 L 345.30 445.90 Z" fill="#a8beef" fill-rule="nonzero" group-id="1,3,6" node-id="191" stroke="none" target-height="23" target-width="28.800018" target-x="345.3" target-y="422.9"></path><path d="M 258.90 458.90 L 287.70 458.90 L 287.70 481.90 L 258.90 481.90 Z" fill="#a8beef" fill-rule="nonzero" group-id="1,3,6" node-id="193" stroke="none" target-height="23" target-width="28.800018" target-x="258.9" target-y="458.9"></path><path d="M 302.10 458.90 L 330.90 458.90 L 330.90 481.90 L 302.10 481.90 Z" fill="#a8beef" fill-rule="nonzero" group-id="1,3,6" node-id="195" stroke="none" target-height="23" target-width="28.799988" target-x="302.1" target-y="458.9"></path><path d="M 345.30 458.90 L 374.10 458.90 L 374.10 481.90 L 345.30 481.90 Z" fill="#a8beef" fill-rule="nonzero" group-id="1,3,6" node-id="197" stroke="none" target-height="23" target-width="28.800018" target-x="345.3" target-y="458.9"></path><path d="M 258.90 494.90 L 287.70 494.90 L 287.70 517.90 L 258.90 517.90 Z" fill="#a8beef" fill-rule="nonzero" group-id="1,3,6" node-id="199" stroke="none" target-height="23.00003" target-width="28.800018" target-x="258.9" target-y="494.9"></path><path d="M 302.10 494.90 L 330.90 494.90 L 330.90 517.90 L 302.10 517.90 Z" fill="#a8beef" fill-rule="nonzero" group-id="1,3,6" node-id="201" stroke="none" target-height="23.00003" target-width="28.799988" target-x="302.1" target-y="494.9"></path><path d="M 345.30 494.90 L 374.10 494.90 L 374.10 517.90 L 345.30 517.90 Z" fill="#a8beef" fill-rule="nonzero" group-id="1,3,6" node-id="203" stroke="none" target-height="23.00003" target-width="28.800018" target-x="345.3" target-y="494.9"></path><path d="M 258.90 530.80 L 287.70 530.80 L 287.70 553.80 L 258.90 553.80 Z" fill="#a8beef" fill-rule="nonzero" group-id="1,3,6" node-id="205" stroke="none" target-height="23" target-width="28.800018" target-x="258.9" target-y="530.8"></path><path d="M 215.80 530.80 L 244.60 530.80 L 244.60 553.80 L 215.80 553.80 Z" fill="#a8beef" fill-rule="nonzero" group-id="1,3,6" node-id="207" stroke="none" target-height="23" target-width="28.800003" target-x="215.8" target-y="530.8"></path><path d="M 172.60 530.80 L 201.40 530.80 L 201.40 553.80 L 172.60 553.80 Z" fill="#a8beef" fill-rule="nonzero" group-id="1,3,6" node-id="209" stroke="none" target-height="23" target-width="28.799988" target-x="172.6" target-y="530.8"></path><path d="M 302.10 530.80 L 330.90 530.80 L 330.90 553.80 L 302.10 553.80 Z" fill="#a8beef" fill-rule="nonzero" group-id="1,3,6" node-id="211" stroke="none" target-height="23" target-width="28.799988" target-x="302.1" target-y="530.8"></path><path d="M 345.30 530.80 L 374.10 530.80 L 374.10 553.80 L 345.30 553.80 Z" fill="#a8beef" fill-rule="nonzero" group-id="1,3,6" node-id="213" stroke="none" target-height="23" target-width="28.800018" target-x="345.3" target-y="530.8"></path><path d="M 258.90 566.80 L 287.70 566.80 L 287.70 589.80 L 258.90 589.80 Z" fill="#a8beef" fill-rule="nonzero" group-id="1,3,6" node-id="215" stroke="none" target-height="23" target-width="28.800018" target-x="258.9" target-y="566.8"></path><path d="M 215.80 566.80 L 244.60 566.80 L 244.60 589.80 L 215.80 589.80 Z" fill="#a8beef" fill-rule="nonzero" group-id="1,3,6" node-id="217" stroke="none" target-height="23" target-width="28.800003" target-x="215.8" target-y="566.8"></path><path d="M 172.60 566.80 L 201.40 566.80 L 201.40 589.80 L 172.60 589.80 Z" fill="#a8beef" fill-rule="nonzero" group-id="1,3,6" node-id="219" stroke="none" target-height="23" target-width="28.799988" target-x="172.6" target-y="566.8"></path><path d="M 302.10 566.80 L 330.90 566.80 L 330.90 589.80 L 302.10 589.80 Z" fill="#a8beef" fill-rule="nonzero" group-id="1,3,6" node-id="221" stroke="none" target-height="23" target-width="28.799988" target-x="302.1" target-y="566.8"></path><path d="M 345.30 566.80 L 374.10 566.80 L 374.10 589.80 L 345.30 589.80 Z" fill="#a8beef" fill-rule="nonzero" group-id="1,3,6" node-id="223" stroke="none" target-height="23" target-width="28.800018" target-x="345.3" target-y="566.8"></path><path d="M 258.90 602.80 L 287.70 602.80 L 287.70 625.80 L 258.90 625.80 Z" fill="#a8beef" fill-rule="nonzero" group-id="1,3,6" node-id="225" stroke="none" target-height="23" target-width="28.800018" target-x="258.9" target-y="602.8"></path><path d="M 215.80 602.80 L 244.60 602.80 L 244.60 625.80 L 215.80 625.80 Z" fill="#a8beef" fill-rule="nonzero" group-id="1,3,6" node-id="227" stroke="none" target-height="23" target-width="28.800003" target-x="215.8" target-y="602.8"></path><path d="M 172.60 602.80 L 201.40 602.80 L 201.40 625.80 L 172.60 625.80 Z" fill="#a8beef" fill-rule="nonzero" group-id="1,3,6" node-id="229" stroke="none" target-height="23" target-width="28.799988" target-x="172.6" target-y="602.8"></path><path d="M 302.10 602.80 L 330.90 602.80 L 330.90 625.80 L 302.10 625.80 Z" fill="#a8beef" fill-rule="nonzero" group-id="1,3,6" node-id="231" stroke="none" target-height="23" target-width="28.799988" target-x="302.1" target-y="602.8"></path><path d="M 345.30 602.80 L 374.10 602.80 L 374.10 625.80 L 345.30 625.80 Z" fill="#a8beef" fill-rule="nonzero" group-id="1,3,6" node-id="233" stroke="none" target-height="23" target-width="28.800018" target-x="345.3" target-y="602.8"></path><path d="M 258.90 638.80 L 287.70 638.80 L 287.70 661.80 L 258.90 661.80 Z" fill="#a8beef" fill-rule="nonzero" group-id="1,3,6" node-id="235" stroke="none" target-height="23" target-width="28.800018" target-x="258.9" target-y="638.8"></path><path d="M 215.80 638.80 L 244.60 638.80 L 244.60 661.80 L 215.80 661.80 Z" fill="#a8beef" fill-rule="nonzero" group-id="1,3,6" node-id="237" stroke="none" target-height="23" target-width="28.800003" target-x="215.8" target-y="638.8"></path><path d="M 172.60 638.80 L 201.40 638.80 L 201.40 661.80 L 172.60 661.80 Z" fill="#a8beef" fill-rule="nonzero" group-id="1,3,6" node-id="239" stroke="none" target-height="23" target-width="28.799988" target-x="172.6" target-y="638.8"></path><path d="M 302.10 638.80 L 330.90 638.80 L 330.90 661.80 L 302.10 661.80 Z" fill="#a8beef" fill-rule="nonzero" group-id="1,3,6" node-id="241" stroke="none" target-height="23" target-width="28.799988" target-x="302.1" target-y="638.8"></path><path d="M 345.30 638.80 L 374.10 638.80 L 374.10 661.80 L 345.30 661.80 Z" fill="#a8beef" fill-rule="nonzero" group-id="1,3,6" node-id="243" stroke="none" target-height="23" target-width="28.800018" target-x="345.3" target-y="638.8"></path></g></g><g node-id="377"><path d="M 634.50 713.60 L 634.50 584.10 L 697.90 584.10 L 697.90 434.40 L 794.30 434.40 L 794.30 504.90 L 850.40 504.90 L 850.40 713.60 Z" fill="#ccdafe" fill-rule="nonzero" group-id="1,4" node-id="249" stroke="none" target-height="279.19998" target-width="215.90002" target-x="634.5" target-y="434.4"></path><g node-id="380"><path d="M 712.30 453.10 L 741.10 453.10 L 741.10 476.10 L 712.30 476.10 Z" fill="#a8beef" fill-rule="nonzero" group-id="1,4,7" node-id="253" stroke="none" target-height="23" target-width="28.799988" target-x="712.3" target-y="453.1"></path><path d="M 752.60 453.10 L 781.40 453.10 L 781.40 476.10 L 752.60 476.10 Z" fill="#a8beef" fill-rule="nonzero" group-id="1,4,7" node-id="255" stroke="none" target-height="23" target-width="28.800049" target-x="752.6" target-y="453.1"></path><path d="M 712.30 597.00 L 741.10 597.00 L 741.10 620.00 L 712.30 620.00 Z" fill="#a8beef" fill-rule="nonzero" group-id="1,4,7" node-id="257" stroke="none" target-height="23" target-width="28.799988" target-x="712.3" target-y="597"></path><path d="M 672.00 597.00 L 700.80 597.00 L 700.80 620.00 L 672.00 620.00 Z" fill="#a8beef" fill-rule="nonzero" group-id="1,4,7" node-id="259" stroke="none" target-height="23" target-width="28.799988" target-x="672" target-y="597"></path><path d="M 672.00 633.00 L 700.80 633.00 L 700.80 656.00 L 672.00 656.00 Z" fill="#a8beef" fill-rule="nonzero" group-id="1,4,7" node-id="261" stroke="none" target-height="23" target-width="28.799988" target-x="672" target-y="633"></path><path d="M 752.60 597.00 L 781.40 597.00 L 781.40 620.00 L 752.60 620.00 Z" fill="#a8beef" fill-rule="nonzero" group-id="1,4,7" node-id="263" stroke="none" target-height="23" target-width="28.800049" target-x="752.6" target-y="597"></path><path d="M 712.30 489.10 L 741.10 489.10 L 741.10 512.10 L 712.30 512.10 Z" fill="#a8beef" fill-rule="nonzero" group-id="1,4,7" node-id="265" stroke="none" target-height="22.99997" target-width="28.799988" target-x="712.3" target-y="489.1"></path><path d="M 752.60 489.10 L 781.40 489.10 L 781.40 512.10 L 752.60 512.10 Z" fill="#a8beef" fill-rule="nonzero" group-id="1,4,7" node-id="267" stroke="none" target-height="22.99997" target-width="28.800049" target-x="752.6" target-y="489.1"></path><path d="M 712.30 525.10 L 741.10 525.10 L 741.10 548.10 L 712.30 548.10 Z" fill="#a8beef" fill-rule="nonzero" group-id="1,4,7" node-id="269" stroke="none" target-height="23" target-width="28.799988" target-x="712.3" target-y="525.1"></path><path d="M 752.60 525.10 L 781.40 525.10 L 781.40 548.10 L 752.60 548.10 Z" fill="#a8beef" fill-rule="nonzero" group-id="1,4,7" node-id="271" stroke="none" target-height="23" target-width="28.800049" target-x="752.6" target-y="525.1"></path><path d="M 792.80 525.10 L 821.60 525.10 L 821.60 548.10 L 792.80 548.10 Z" fill="#a8beef" fill-rule="nonzero" group-id="1,4,7" node-id="273" stroke="none" target-height="23" target-width="28.799988" target-x="792.8" target-y="525.1"></path><path d="M 792.80 561.10 L 821.60 561.10 L 821.60 584.10 L 792.80 584.10 Z" fill="#a8beef" fill-rule="nonzero" group-id="1,4,7" node-id="275" stroke="none" target-height="23" target-width="28.799988" target-x="792.8" target-y="561.1"></path><path d="M 792.80 597.00 L 821.60 597.00 L 821.60 620.00 L 792.80 620.00 Z" fill="#a8beef" fill-rule="nonzero" group-id="1,4,7" node-id="277" stroke="none" target-height="23" target-width="28.799988" target-x="792.8" target-y="597"></path><path d="M 792.80 633.00 L 821.60 633.00 L 821.60 656.00 L 792.80 656.00 Z" fill="#a8beef" fill-rule="nonzero" group-id="1,4,7" node-id="279" stroke="none" target-height="23" target-width="28.799988" target-x="792.8" target-y="633"></path><path d="M 712.30 561.10 L 741.10 561.10 L 741.10 584.10 L 712.30 584.10 Z" fill="#a8beef" fill-rule="nonzero" group-id="1,4,7" node-id="281" stroke="none" target-height="23" target-width="28.799988" target-x="712.3" target-y="561.1"></path><path d="M 752.60 561.10 L 781.40 561.10 L 781.40 584.10 L 752.60 584.10 Z" fill="#a8beef" fill-rule="nonzero" group-id="1,4,7" node-id="283" stroke="none" target-height="23" target-width="28.800049" target-x="752.6" target-y="561.1"></path><path d="M 712.30 633.00 L 741.10 633.00 L 741.10 656.00 L 712.30 656.00 Z" fill="#a8beef" fill-rule="nonzero" group-id="1,4,7" node-id="285" stroke="none" target-height="23" target-width="28.799988" target-x="712.3" target-y="633"></path><path d="M 752.60 633.00 L 781.40 633.00 L 781.40 656.00 L 752.60 656.00 Z" fill="#a8beef" fill-rule="nonzero" group-id="1,4,7" node-id="287" stroke="none" target-height="23" target-width="28.800049" target-x="752.6" target-y="633"></path></g></g><g node-id="378"><g node-id="381"><path d="M 92.00 751.00 L 104.60 741.70 L 127.70 726.70 L 155.00 710.60 L 182.20 696.40 L 196.70 689.30 L 212.70 682.10 L 230.10 674.60 L 247.70 667.60 L 266.60 660.80 L 286.90 654.00 L 318.00 644.80 L 334.50 640.60 L 351.80 636.50 L 369.00 633.00 L 386.80 629.80 L 405.20 626.90 L 424.30 624.50 L 443.20 622.60 L 462.80 621.20 L 482.90 620.30 L 503.60 620.00 L 521.10 620.30 L 538.40 621.00 L 555.40 622.10 L 572.20 623.70 L 605.50 628.00 L 637.60 633.60 L 658.70 638.10 L 679.00 643.00 L 698.70 648.30 L 718.30 654.10 L 736.90 660.00 L 772.40 672.60 L 804.70 685.50 L 827.50 695.50 L 847.70 704.90 L 866.70 714.30 L 882.70 722.70 L 908.90 737.40 L 931.00 751.00 L 914.10 745.90 L 888.20 739.80 L 858.60 734.40 L 842.20 732.00 L 823.20 729.70 L 801.20 727.50 L 779.20 725.90 L 754.40 724.60 L 726.60 723.70 L 713.90 723.70 L 701.70 724.20 L 689.90 725.00 L 672.20 726.90 L 654.90 729.40 L 602.40 738.50 L 571.40 743.30 L 544.60 746.30 L 530.90 747.30 L 516.30 748.00 L 500.70 748.20 L 479.00 748.00 L 438.70 746.20 L 419.40 744.90 L 342.60 738.10 L 301.80 734.90 L 257.50 732.40 L 243.00 732.10 L 228.90 732.10 L 215.20 732.60 L 188.50 734.40 L 158.10 738.00 L 127.50 743.00 L 115.70 745.40 L 92.00 751.00 Z" fill="url(#SVGID_1_)" fill-rule="nonzero" group-id="1,5,8" node-id="295" stroke="none" target-height="131" target-width="839" target-x="92" target-y="620"></path><path d="M 428.70 624.10 L 423.90 628.10 L 422.30 630.10 L 421.10 632.30 L 420.30 634.50 L 420.10 636.60 L 420.40 639.00 L 421.30 641.40 L 422.90 643.90 L 425.20 646.40 L 430.90 650.60 L 439.40 654.90 L 445.60 657.20 L 452.80 659.50 L 469.40 663.20 L 488.50 665.90 L 498.50 666.80 L 520.10 667.50 L 531.20 667.30 L 551.70 665.90 L 561.70 664.70 L 579.10 661.50 L 587.40 659.40 L 594.60 657.20 L 605.40 652.70 L 609.30 650.60 L 615.00 646.30 L 617.30 643.80 L 618.90 641.40 L 619.80 639.00 L 620.10 636.60 L 619.80 634.50 L 619.10 632.30 L 617.80 630.00 L 599.50 627.10 L 580.80 624.70 L 561.80 622.70 L 542.70 621.20 L 523.20 620.30 L 503.50 620.00 L 484.00 620.30 L 465.10 621.10 L 446.70 622.40 L 428.70 624.10 Z" fill="url(#SVGID_2_)" fill-rule="nonzero" group-id="1,5,8" node-id="297" stroke="none" target-height="47.5" target-width="199.99997" target-x="420.1" target-y="620"></path><g node-id="383"><path d="M 386.60 677.40 L 386.90 678.90 L 386.70 680.60 L 386.00 682.40 L 384.80 684.30 L 382.90 686.70 L 380.20 689.20 L 376.60 692.00 L 368.40 696.90 L 363.30 699.40 L 352.40 703.80 L 346.20 705.70 L 339.90 707.40 L 328.40 709.70 L 322.70 710.30 L 313.10 710.60 L 308.60 710.20 L 305.00 709.50 L 302.10 708.60 L 300.00 707.60 L 297.50 705.20 L 296.80 703.70 L 296.60 702.20 L 297.40 698.80 L 298.60 696.80 L 300.60 694.50 L 303.20 691.90 L 306.80 689.20 L 315.00 684.20 L 320.20 681.70 L 331.10 677.40 L 337.30 675.40 L 343.60 673.70 L 355.10 671.50 L 360.80 670.80 L 370.30 670.50 L 374.90 670.90 L 378.50 671.60 L 381.40 672.50 L 383.50 673.60 L 385.00 674.70 L 386.60 677.40 Z" fill="#3b6ce4" fill-rule="nonzero" group-id="1,5,8,10" node-id="301" stroke="none" target-height="40.099976" target-width="90.29999" target-x="296.6" target-y="670.5"></path></g><path d="M 561.80 699.80 L 567.40 701.80 L 572.60 704.00 L 577.30 706.70 L 581.20 709.40 L 585.10 713.40 L 587.10 717.00 L 587.30 718.70 L 587.10 720.30 L 586.40 721.70 L 585.30 722.90 L 583.50 724.10 L 579.20 725.50 L 576.10 725.90 L 571.40 726.10 L 566.00 725.60 L 560.50 724.60 L 554.70 723.10 L 549.00 721.10 L 543.90 718.80 L 539.10 716.20 L 535.30 713.50 L 531.30 709.50 L 529.40 705.90 L 529.10 704.20 L 529.40 702.60 L 530.00 701.20 L 531.20 700.00 L 532.90 698.80 L 537.30 697.40 L 540.30 697.00 L 545.10 696.80 L 550.50 697.30 L 556.00 698.30 L 561.80 699.80 Z" fill="#3b6ce4" fill-rule="nonzero" group-id="1,5,8,11" node-id="306" stroke="none" target-height="29.299988" target-width="58.200012" target-x="529.1" target-y="696.8"></path></g><g node-id="382"><g node-id="385"><path d="M 749.30 628.00 L 751.60 625.30 L 753.40 622.40 L 754.70 619.30 L 755.60 616.10 L 755.90 612.80 L 755.70 609.40 L 755.00 606.40 L 753.90 603.60 L 752.50 601.00 L 750.70 598.60 L 746.20 594.60 L 740.50 591.60 L 740.60 588.90 L 740.30 586.00 L 739.40 583.00 L 738.10 580.40 L 736.30 578.10 L 734.20 576.20 L 731.80 574.60 L 729.20 573.40 L 726.40 572.70 L 723.50 572.60 L 720.50 572.90 L 717.60 573.80 L 715.00 575.10 L 712.70 576.90 L 710.80 579.00 L 709.20 581.40 L 708.10 584.00 L 707.40 586.80 L 707.30 589.70 L 707.60 592.80 L 708.70 596.10 L 706.20 598.30 L 702.30 603.20 L 699.70 608.70 L 699.00 611.60 L 698.80 614.60 L 699.00 617.70 L 699.60 620.50 L 701.90 625.50 L 703.50 627.80 L 701.00 629.70 L 697.40 633.70 L 696.10 636.00 L 695.40 638.30 L 695.10 640.80 L 695.40 643.40 L 696.20 645.80 L 697.60 648.20 L 699.30 650.30 L 701.50 652.30 L 704.30 654.20 L 710.50 657.20 L 718.00 659.10 L 722.00 659.60 L 726.30 659.80 L 734.60 659.10 L 738.40 658.30 L 745.40 655.80 L 751.10 652.30 L 753.30 650.30 L 755.00 648.20 L 756.40 645.80 L 757.20 643.40 L 757.50 640.80 L 757.20 638.40 L 756.50 636.10 L 755.20 633.80 L 753.70 631.80 L 749.30 628.00 Z" fill="url(#SVGID_3_)" fill-rule="nonzero" group-id="1,5,9,12" node-id="314" stroke="none" target-height="87.20001" target-width="62.400024" target-x="695.1" target-y="572.6"></path><g node-id="387"><g node-id="389"><path d="M 725.60 686.40 L 724.60 684.70 L 724.30 683.50 L 726.40 660.20 L 726.60 651.80 L 726.50 639.90 L 725.90 631.70 L 724.00 619.60 L 724.10 618.40 L 724.80 616.40 L 725.60 615.80 L 726.30 615.80 L 726.90 616.40 L 727.40 617.80 L 729.30 630.20 L 730.10 643.10 L 730.20 652.00 L 729.10 671.50 L 727.80 683.90 L 726.90 686.00 L 726.30 686.50 L 725.60 686.40 Z" fill="#ff7f2a" fill-rule="nonzero" group-id="1,5,9,12,14,16" node-id="320" stroke="none" target-height="70.70001" target-width="6.200012" target-x="724" target-y="615.8"></path></g></g></g><g node-id="386"><path d="M 805.10 674.70 L 806.90 672.40 L 808.20 669.80 L 808.70 667.90 L 808.80 664.10 L 808.20 661.80 L 807.30 659.80 L 804.30 656.40 L 800.10 653.90 L 800.00 650.70 L 799.50 649.00 L 797.70 646.20 L 795.80 644.60 L 793.70 643.50 L 790.40 643.00 L 788.70 643.20 L 785.60 644.40 L 784.30 645.40 L 782.70 647.30 L 781.70 649.60 L 781.20 652.80 L 782.00 656.50 L 778.60 660.00 L 776.70 664.20 L 776.40 666.50 L 776.50 668.80 L 777.00 670.90 L 779.10 674.60 L 777.00 676.20 L 775.60 677.90 L 774.60 679.90 L 774.30 682.00 L 774.60 683.90 L 775.40 685.70 L 776.70 687.50 L 778.40 688.90 L 780.50 690.20 L 785.80 692.10 L 792.10 692.80 L 798.40 692.10 L 803.70 690.20 L 807.50 687.40 L 808.80 685.70 L 809.60 683.90 L 809.90 682.00 L 809.50 680.00 L 808.60 678.20 L 807.20 676.40 L 805.10 674.70 Z" fill="url(#SVGID_4_)" fill-rule="nonzero" group-id="1,5,9,13" node-id="327" stroke="none" target-height="49.799988" target-width="35.600037" target-x="774.3" target-y="643"></path><g node-id="388"><g node-id="390"><path d="M 791.60 708.00 L 791.00 707.10 L 790.90 705.50 L 791.90 695.70 L 792.10 681.50 L 790.70 669.10 L 791.10 668.00 L 791.90 667.60 L 792.60 668.80 L 793.70 675.90 L 794.20 688.30 L 793.80 696.30 L 792.80 706.50 L 792.40 707.80 L 791.60 708.00 Z" fill="#ff7f2a" fill-rule="nonzero" group-id="1,5,9,13,15,17" node-id="333" stroke="none" target-height="40.400024" target-width="3.5" target-x="790.7" target-y="667.6"></path></g></g></g></g></g></g><g node-id="375"><path d="M 302.10 533.50 L 349.60 477.10 L 349.60 533.50 Z" fill="#124287" fill-rule="nonzero" group-id="2" node-id="343" stroke="none" target-height="56.399994" target-width="47.5" target-x="302.1" target-y="477.1"></path><path d="M 349.00 477.10 L 492.50 439.00 L 492.50 593.10 L 349.00 633.90 Z" fill="url(#SVGID_5_)" fill-rule="nonzero" group-id="2" node-id="345" stroke="none" target-height="194.90002" target-width="143.5" target-x="349" target-y="439"></path><path d="M 663.70 480.10 L 492.50 439.00 L 492.50 593.10 L 663.70 638.90 Z" fill="url(#SVGID_6_)" fill-rule="nonzero" group-id="2" node-id="347" stroke="none" target-height="199.90002" target-width="171.20001" target-x="492.5" target-y="439"></path><path d="M 517.20 523.60 L 517.20 706.10 L 349.00 633.90 L 349.00 477.10 Z" fill="#285bbf" fill-rule="nonzero" group-id="2" node-id="349" stroke="none" target-height="228.99997" target-width="168.20001" target-x="349" target-y="477.1"></path><path d="M 663.70 638.90 L 517.20 706.10 L 517.20 523.60 L 663.70 480.10 Z" fill="#5d94fa" fill-rule="nonzero" group-id="2" node-id="351" stroke="none" target-height="225.99997" target-width="146.5" target-x="517.2" target-y="480.1"></path><path d="M 517.20 523.60 L 479.00 612.90 L 303.80 562.40 L 349.00 477.10 Z" fill="#1e53a8" fill-rule="nonzero" group-id="2" node-id="353" stroke="none" target-height="135.80002" target-width="213.40002" target-x="303.8" target-y="477.1"></path><path d="M 517.20 523.60 L 570.30 607.50 L 712.00 550.40 L 663.70 480.10 Z" fill="#236bc1" fill-rule="nonzero" group-id="2" node-id="355" stroke="none" target-height="127.399994" target-width="194.79999" target-x="517.2" target-y="480.1"></path><path d="M 394.10 528.20 L 427.30 506.00 L 420.30 496.60 L 414.70 491.10 L 411.70 488.80 L 407.50 486.80 L 405.50 486.40 L 403.50 486.50 L 401.60 487.00 L 399.90 488.00 L 397.50 490.00 L 393.20 495.70 L 388.00 503.80 L 385.80 506.00 L 383.60 506.50 L 380.20 505.60 L 377.40 504.30 L 371.50 500.60 L 366.90 496.60 L 360.20 488.60 L 358.70 488.00 L 357.30 488.70 L 345.50 503.00 L 345.40 503.50 L 346.20 504.50 L 348.40 505.30 L 353.30 503.80 L 358.90 500.50 L 361.30 502.50 L 348.40 518.70 L 348.00 519.50 L 348.50 521.00 L 349.30 521.40 L 350.90 521.60 L 352.80 521.20 L 354.60 520.30 L 356.50 518.60 L 360.40 514.30 L 361.50 513.80 L 362.80 513.70 L 364.70 514.30 L 366.30 515.30 L 374.60 524.10 L 379.60 527.50 L 384.60 529.00 L 387.30 529.30 L 390.40 529.00 L 394.10 528.20 Z" fill="#124287" fill-rule="nonzero" group-id="2" node-id="357" stroke="none" target-height="42.899994" target-width="81.899994" target-x="345.4" target-y="486.4"></path><path d="M 401.50 484.60 L 406.30 481.40 L 409.50 479.70 L 413.60 478.00 L 418.00 476.70 L 423.00 475.80 L 426.50 475.70 L 434.30 476.50 L 438.20 477.50 L 442.30 479.10 L 446.80 481.40 L 451.60 485.60 L 453.80 488.10 L 456.80 492.20 L 461.60 500.30 L 463.40 504.60 L 462.90 506.40 L 461.30 507.50 L 460.20 507.50 L 451.70 506.50 L 446.70 506.30 L 441.10 506.60 L 437.30 507.10 L 428.70 509.20 L 427.50 509.10 L 425.60 507.80 L 418.90 499.70 L 412.50 493.40 L 409.00 490.60 L 405.40 488.30 L 401.30 486.30 L 401.10 485.10 L 401.50 484.60 Z" fill="#dbeefe" fill-rule="nonzero" group-id="2" node-id="359" stroke="none" target-height="33.5" target-width="62.299988" target-x="401.1" target-y="475.7"></path><path d="M 355.60 489.00 L 344.60 502.90 L 344.40 504.20 L 346.50 506.00 L 347.70 506.50 L 349.20 506.40 L 352.20 505.20 L 358.20 501.80 L 358.90 501.60 L 360.40 502.20 L 361.30 501.80 L 366.50 496.20 L 366.80 494.90 L 360.90 488.80 L 359.60 487.90 L 358.20 487.70 L 357.20 487.80 L 355.60 489.00 Z" fill="#353535" fill-rule="nonzero" group-id="2" node-id="361" stroke="none" target-height="18.799988" target-width="22.399994" target-x="344.4" target-y="487.7"></path><path d="M 361.60 502.70 L 367.20 506.10 L 368.00 507.10 L 367.80 508.40 L 365.10 513.20 L 364.00 514.00 L 362.00 514.10 L 361.30 514.60 L 355.70 520.90 L 354.20 522.10 L 353.10 522.50 L 348.20 522.10 L 347.40 521.70 L 347.10 521.20 L 347.30 520.70 L 350.60 515.50 L 359.40 503.10 L 360.40 502.50 L 361.60 502.70 Z" fill="#353535" fill-rule="nonzero" group-id="2" node-id="363" stroke="none" target-height="20" target-width="20.899994" target-x="347.1" target-y="502.5"></path><path d="M 368.10 507.20 L 381.30 514.30 L 387.20 516.70 L 388.50 516.10 L 404.10 499.60 L 408.20 497.70 L 405.10 498.30 L 402.00 500.40 L 392.50 511.30 L 389.30 514.60 L 387.20 515.80 L 379.60 512.70 L 368.10 507.20 Z" fill="#0c3668" fill-rule="nonzero" group-id="2" node-id="365" stroke="none" target-height="19" target-width="40.100006" target-x="368.1" target-y="497.7"></path></g><path d="M 629.80 272.40 L 634.70 278.50 L 636.60 281.90 L 639.70 289.30 L 640.70 293.10 L 641.50 301.40 L 641.30 305.80 L 640.60 309.90 L 639.60 313.90 L 636.40 321.40 L 631.90 328.10 L 626.20 333.80 L 619.50 338.30 L 612.00 341.50 L 608.00 342.50 L 603.90 343.20 L 599.50 343.40 L 594.90 343.20 L 590.50 342.40 L 593.50 345.30 L 596.80 347.80 L 600.30 350.00 L 604.00 351.90 L 608.00 353.40 L 612.10 354.50 L 616.30 355.20 L 620.80 355.40 L 625.20 355.20 L 629.30 354.50 L 633.30 353.50 L 637.20 352.10 L 640.80 350.30 L 647.50 345.80 L 653.20 340.10 L 657.70 333.40 L 660.90 325.90 L 661.90 321.90 L 662.60 317.80 L 662.80 313.40 L 662.50 308.40 L 661.70 303.60 L 660.30 299.10 L 658.40 294.70 L 656.10 290.70 L 653.40 286.90 L 650.20 283.50 L 646.70 280.40 L 642.90 277.70 L 638.80 275.50 L 634.40 273.70 L 629.80 272.40 Z" fill="#efbb81" fill-rule="nonzero" node-id="368" stroke="none" target-height="83" target-width="72.29999" target-x="590.5" target-y="272.4"></path><path d="M 439.50 327.20 L 438.30 324.80 L 436.50 322.50 L 434.20 320.30 L 431.60 318.50 L 428.60 316.90 L 425.10 315.60 L 421.50 314.60 L 417.50 314.00 L 413.30 313.80 L 408.30 314.10 L 403.80 314.90 L 399.70 316.20 L 395.80 318.00 L 392.60 320.10 L 390.00 322.50 L 388.40 324.50 L 387.20 326.70 L 386.60 328.90 L 386.30 331.50 L 379.90 332.20 L 374.20 333.30 L 369.10 334.70 L 364.20 336.60 L 360.20 338.70 L 357.20 340.90 L 355.10 342.90 L 353.80 344.90 L 353.00 346.90 L 352.70 349.00 L 352.90 350.80 L 354.40 354.20 L 358.10 357.90 L 360.90 359.80 L 364.50 361.60 L 372.50 364.30 L 377.30 365.40 L 387.40 366.60 L 393.00 366.80 L 399.70 366.60 L 406.00 365.90 L 411.90 364.70 L 417.10 363.20 L 422.00 361.40 L 425.90 359.30 L 433.30 359.80 L 441.50 359.20 L 448.80 357.50 L 454.90 355.00 L 459.70 351.60 L 461.40 349.70 L 462.70 347.60 L 463.50 345.50 L 463.80 343.30 L 463.00 339.50 L 460.50 336.00 L 458.30 333.90 L 455.40 332.10 L 451.90 330.30 L 448.20 329.00 L 439.50 327.20 Z" fill="#5d94fa" fill-rule="nonzero" node-id="370" stroke="none" target-height="53" target-width="111.099976" target-x="352.7" target-y="313.8"></path><path d="M 679.50 385.40 L 679.30 384.20 L 678.60 382.90 L 677.40 381.60 L 675.40 380.20 L 668.90 377.40 L 659.40 374.90 L 647.60 373.20 L 637.90 372.40 L 622.20 372.20 L 620.50 370.70 L 617.90 369.10 L 614.20 367.50 L 605.70 365.20 L 600.30 364.30 L 588.90 363.30 L 574.10 363.40 L 566.60 364.00 L 559.40 365.20 L 553.60 366.60 L 549.90 367.90 L 544.80 370.40 L 542.90 372.10 L 541.90 373.60 L 541.60 375.10 L 541.80 376.20 L 543.20 378.40 L 545.00 379.90 L 547.60 381.40 L 536.00 382.20 L 525.80 383.30 L 516.10 384.80 L 508.30 386.50 L 503.40 388.00 L 496.80 390.80 L 494.80 392.20 L 493.50 393.50 L 492.80 394.70 L 492.60 395.90 L 492.90 397.20 L 493.80 398.60 L 495.40 400.10 L 498.10 401.70 L 501.70 403.30 L 506.60 404.90 L 519.30 407.60 L 535.00 409.60 L 543.40 410.30 L 562.00 410.80 L 574.60 410.60 L 586.20 409.90 L 597.20 408.80 L 606.60 407.30 L 612.70 406.10 L 621.90 403.50 L 625.90 401.80 L 628.60 400.10 L 630.30 398.60 L 640.50 398.20 L 649.50 397.40 L 658.20 396.00 L 665.20 394.50 L 669.60 393.10 L 675.70 390.40 L 678.60 387.80 L 679.50 385.40 Z" fill="#5d94fa" fill-rule="nonzero" node-id="372" stroke="none" target-height="47.5" target-width="186.9" target-x="492.6" target-y="363.3"></path></svg>