<?xml version="1.0" standalone="no"?><!DOCTYPE svg PUBLIC "-//W3C//DTD SVG 1.1//EN" "http://www.w3.org/Graphics/SVG/1.1/DTD/svg11.dtd"><svg height="1024" node-id="1" sillyvg="true" template-height="1024" template-width="1024" version="1.1" viewBox="0 0 1024 1024" width="1024" xmlns="http://www.w3.org/2000/svg" xmlns:xlink="http://www.w3.org/1999/xlink"><defs node-id="123"><linearGradient gradientUnits="objectBoundingBox" id="SVGID_1_" node-id="64" spreadMethod="pad" x1="503.8444" x2="512.2015" y1="623.3421" y2="755.0411"><stop offset="0" stop-color="#91b3ff"></stop><stop offset="0.4022" stop-color="#6791f2"></stop><stop offset="0.7939" stop-color="#3b6ce4"></stop></linearGradient><linearGradient gradientUnits="objectBoundingBox" id="SVGID_2_" node-id="69" spreadMethod="pad" x1="519.5494" x2="523.5323" y1="620.3573" y2="683.1246"><stop offset="0" stop-color="#91b3ff"></stop><stop offset="0.2484" stop-color="#6795ec"></stop><stop offset="0.7939" stop-color="#004cbf"></stop></linearGradient><linearGradient gradientUnits="objectBoundingBox" id="SVGID_3_" node-id="78" spreadMethod="pad" x1="744.0242" x2="707.0714" y1="651.1275" y2="600.8423"><stop offset="0" stop-color="#efbb81"></stop><stop offset="0.5011" stop-color="#f79e57"></stop><stop offset="1" stop-color="#ff7f2a"></stop></linearGradient><linearGradient gradientUnits="objectBoundingBox" id="SVGID_4_" node-id="87" spreadMethod="pad" x1="802.3545" x2="781.2715" y1="688.6566" y2="659.967"><stop offset="0" stop-color="#efbb81"></stop><stop offset="0.5011" stop-color="#f79e57"></stop><stop offset="1" stop-color="#ff7f2a"></stop></linearGradient><linearGradient gradientUnits="objectBoundingBox" id="SVGID_5_" node-id="101" spreadMethod="pad" x1="548.4125" x2="469.0214" y1="508.3109" y2="370.8014"><stop offset="0" stop-color="#efbb81"></stop><stop offset="0.5011" stop-color="#f79e57"></stop><stop offset="1" stop-color="#ff7f2a"></stop></linearGradient><linearGradient gradientUnits="objectBoundingBox" id="SVGID_6_" node-id="106" spreadMethod="pad" x1="515.8549" x2="499.8522" y1="567.4883" y2="539.7709"><stop offset="0" stop-color="#efbb81"></stop><stop offset="0.5011" stop-color="#f79e57"></stop><stop offset="1" stop-color="#ff7f2a"></stop></linearGradient></defs><g node-id="384"><g node-id="388"><path d="M 163.10 718.20 L 163.10 512.40 L 245.50 512.40 L 245.50 364.20 L 386.10 364.20 L 386.10 718.20 Z" fill="#ccdafe" fill-rule="nonzero" group-id="1,5" node-id="180" stroke="none" target-height="354" target-width="223" target-x="163.1" target-y="364.2"></path><g node-id="391"><path d="M 259.50 388.70 L 288.30 388.70 L 288.30 411.70 L 259.50 411.70 Z" fill="#a8beef" fill-rule="nonzero" group-id="1,5,8" node-id="184" stroke="none" target-height="23" target-width="28.799988" target-x="259.5" target-y="388.7"></path><path d="M 302.70 388.70 L 331.50 388.70 L 331.50 411.70 L 302.70 411.70 Z" fill="#a8beef" fill-rule="nonzero" group-id="1,5,8" node-id="186" stroke="none" target-height="23" target-width="28.799988" target-x="302.7" target-y="388.7"></path><path d="M 345.80 388.70 L 374.60 388.70 L 374.60 411.70 L 345.80 411.70 Z" fill="#a8beef" fill-rule="nonzero" group-id="1,5,8" node-id="188" stroke="none" target-height="23" target-width="28.800018" target-x="345.8" target-y="388.7"></path><path d="M 259.50 424.60 L 288.30 424.60 L 288.30 447.60 L 259.50 447.60 Z" fill="#a8beef" fill-rule="nonzero" group-id="1,5,8" node-id="190" stroke="none" target-height="23" target-width="28.799988" target-x="259.5" target-y="424.6"></path><path d="M 302.70 424.60 L 331.50 424.60 L 331.50 447.60 L 302.70 447.60 Z" fill="#a8beef" fill-rule="nonzero" group-id="1,5,8" node-id="192" stroke="none" target-height="23" target-width="28.799988" target-x="302.7" target-y="424.6"></path><path d="M 345.80 424.60 L 374.60 424.60 L 374.60 447.60 L 345.80 447.60 Z" fill="#a8beef" fill-rule="nonzero" group-id="1,5,8" node-id="194" stroke="none" target-height="23" target-width="28.800018" target-x="345.8" target-y="424.6"></path><path d="M 259.50 460.60 L 288.30 460.60 L 288.30 483.60 L 259.50 483.60 Z" fill="#a8beef" fill-rule="nonzero" group-id="1,5,8" node-id="196" stroke="none" target-height="23" target-width="28.799988" target-x="259.5" target-y="460.6"></path><path d="M 302.70 460.60 L 331.50 460.60 L 331.50 483.60 L 302.70 483.60 Z" fill="#a8beef" fill-rule="nonzero" group-id="1,5,8" node-id="198" stroke="none" target-height="23" target-width="28.799988" target-x="302.7" target-y="460.6"></path><path d="M 345.80 460.60 L 374.60 460.60 L 374.60 483.60 L 345.80 483.60 Z" fill="#a8beef" fill-rule="nonzero" group-id="1,5,8" node-id="200" stroke="none" target-height="23" target-width="28.800018" target-x="345.8" target-y="460.6"></path><path d="M 259.50 496.60 L 288.30 496.60 L 288.30 519.60 L 259.50 519.60 Z" fill="#a8beef" fill-rule="nonzero" group-id="1,5,8" node-id="202" stroke="none" target-height="22.99997" target-width="28.799988" target-x="259.5" target-y="496.6"></path><path d="M 302.70 496.60 L 331.50 496.60 L 331.50 519.60 L 302.70 519.60 Z" fill="#a8beef" fill-rule="nonzero" group-id="1,5,8" node-id="204" stroke="none" target-height="22.99997" target-width="28.799988" target-x="302.7" target-y="496.6"></path><path d="M 345.80 496.60 L 374.60 496.60 L 374.60 519.60 L 345.80 519.60 Z" fill="#a8beef" fill-rule="nonzero" group-id="1,5,8" node-id="206" stroke="none" target-height="22.99997" target-width="28.800018" target-x="345.8" target-y="496.6"></path><path d="M 259.50 532.60 L 288.30 532.60 L 288.30 555.60 L 259.50 555.60 Z" fill="#a8beef" fill-rule="nonzero" group-id="1,5,8" node-id="208" stroke="none" target-height="23" target-width="28.799988" target-x="259.5" target-y="532.6"></path><path d="M 216.30 532.60 L 245.10 532.60 L 245.10 555.60 L 216.30 555.60 Z" fill="#a8beef" fill-rule="nonzero" group-id="1,5,8" node-id="210" stroke="none" target-height="23" target-width="28.800003" target-x="216.3" target-y="532.6"></path><path d="M 173.10 532.60 L 201.90 532.60 L 201.90 555.60 L 173.10 555.60 Z" fill="#a8beef" fill-rule="nonzero" group-id="1,5,8" node-id="212" stroke="none" target-height="23" target-width="28.799988" target-x="173.1" target-y="532.6"></path><path d="M 302.70 532.60 L 331.50 532.60 L 331.50 555.60 L 302.70 555.60 Z" fill="#a8beef" fill-rule="nonzero" group-id="1,5,8" node-id="214" stroke="none" target-height="23" target-width="28.799988" target-x="302.7" target-y="532.6"></path><path d="M 345.80 532.60 L 374.60 532.60 L 374.60 555.60 L 345.80 555.60 Z" fill="#a8beef" fill-rule="nonzero" group-id="1,5,8" node-id="216" stroke="none" target-height="23" target-width="28.800018" target-x="345.8" target-y="532.6"></path><path d="M 259.50 568.60 L 288.30 568.60 L 288.30 591.60 L 259.50 591.60 Z" fill="#a8beef" fill-rule="nonzero" group-id="1,5,8" node-id="218" stroke="none" target-height="23" target-width="28.799988" target-x="259.5" target-y="568.6"></path><path d="M 216.30 568.60 L 245.10 568.60 L 245.10 591.60 L 216.30 591.60 Z" fill="#a8beef" fill-rule="nonzero" group-id="1,5,8" node-id="220" stroke="none" target-height="23" target-width="28.800003" target-x="216.3" target-y="568.6"></path><path d="M 173.10 568.60 L 201.90 568.60 L 201.90 591.60 L 173.10 591.60 Z" fill="#a8beef" fill-rule="nonzero" group-id="1,5,8" node-id="222" stroke="none" target-height="23" target-width="28.799988" target-x="173.1" target-y="568.6"></path><path d="M 302.70 568.60 L 331.50 568.60 L 331.50 591.60 L 302.70 591.60 Z" fill="#a8beef" fill-rule="nonzero" group-id="1,5,8" node-id="224" stroke="none" target-height="23" target-width="28.799988" target-x="302.7" target-y="568.6"></path><path d="M 345.80 568.60 L 374.60 568.60 L 374.60 591.60 L 345.80 591.60 Z" fill="#a8beef" fill-rule="nonzero" group-id="1,5,8" node-id="226" stroke="none" target-height="23" target-width="28.800018" target-x="345.8" target-y="568.6"></path><path d="M 259.50 604.50 L 288.30 604.50 L 288.30 627.50 L 259.50 627.50 Z" fill="#a8beef" fill-rule="nonzero" group-id="1,5,8" node-id="228" stroke="none" target-height="23" target-width="28.799988" target-x="259.5" target-y="604.5"></path><path d="M 216.30 604.50 L 245.10 604.50 L 245.10 627.50 L 216.30 627.50 Z" fill="#a8beef" fill-rule="nonzero" group-id="1,5,8" node-id="230" stroke="none" target-height="23" target-width="28.800003" target-x="216.3" target-y="604.5"></path><path d="M 173.10 604.50 L 201.90 604.50 L 201.90 627.50 L 173.10 627.50 Z" fill="#a8beef" fill-rule="nonzero" group-id="1,5,8" node-id="232" stroke="none" target-height="23" target-width="28.799988" target-x="173.1" target-y="604.5"></path><path d="M 302.70 604.50 L 331.50 604.50 L 331.50 627.50 L 302.70 627.50 Z" fill="#a8beef" fill-rule="nonzero" group-id="1,5,8" node-id="234" stroke="none" target-height="23" target-width="28.799988" target-x="302.7" target-y="604.5"></path><path d="M 345.80 604.50 L 374.60 604.50 L 374.60 627.50 L 345.80 627.50 Z" fill="#a8beef" fill-rule="nonzero" group-id="1,5,8" node-id="236" stroke="none" target-height="23" target-width="28.800018" target-x="345.8" target-y="604.5"></path><path d="M 259.50 640.50 L 288.30 640.50 L 288.30 663.50 L 259.50 663.50 Z" fill="#a8beef" fill-rule="nonzero" group-id="1,5,8" node-id="238" stroke="none" target-height="23" target-width="28.799988" target-x="259.5" target-y="640.5"></path><path d="M 216.30 640.50 L 245.10 640.50 L 245.10 663.50 L 216.30 663.50 Z" fill="#a8beef" fill-rule="nonzero" group-id="1,5,8" node-id="240" stroke="none" target-height="23" target-width="28.800003" target-x="216.3" target-y="640.5"></path><path d="M 173.10 640.50 L 201.90 640.50 L 201.90 663.50 L 173.10 663.50 Z" fill="#a8beef" fill-rule="nonzero" group-id="1,5,8" node-id="242" stroke="none" target-height="23" target-width="28.799988" target-x="173.1" target-y="640.5"></path><path d="M 302.70 640.50 L 331.50 640.50 L 331.50 663.50 L 302.70 663.50 Z" fill="#a8beef" fill-rule="nonzero" group-id="1,5,8" node-id="244" stroke="none" target-height="23" target-width="28.799988" target-x="302.7" target-y="640.5"></path><path d="M 345.80 640.50 L 374.60 640.50 L 374.60 663.50 L 345.80 663.50 Z" fill="#a8beef" fill-rule="nonzero" group-id="1,5,8" node-id="246" stroke="none" target-height="23" target-width="28.800018" target-x="345.8" target-y="640.5"></path></g></g><g node-id="389"><path d="M 635.10 715.30 L 635.10 585.80 L 698.40 585.80 L 698.40 436.20 L 794.80 436.20 L 794.80 506.70 L 851.00 506.70 L 851.00 715.30 Z" fill="#ccdafe" fill-rule="nonzero" group-id="1,6" node-id="252" stroke="none" target-height="279.09998" target-width="215.90002" target-x="635.1" target-y="436.2"></path><g node-id="392"><path d="M 712.80 454.90 L 741.60 454.90 L 741.60 477.90 L 712.80 477.90 Z" fill="#a8beef" fill-rule="nonzero" group-id="1,6,9" node-id="256" stroke="none" target-height="23" target-width="28.799988" target-x="712.8" target-y="454.9"></path><path d="M 753.10 454.90 L 781.90 454.90 L 781.90 477.90 L 753.10 477.90 Z" fill="#a8beef" fill-rule="nonzero" group-id="1,6,9" node-id="258" stroke="none" target-height="23" target-width="28.800049" target-x="753.1" target-y="454.9"></path><path d="M 712.80 598.80 L 741.60 598.80 L 741.60 621.80 L 712.80 621.80 Z" fill="#a8beef" fill-rule="nonzero" group-id="1,6,9" node-id="260" stroke="none" target-height="23" target-width="28.799988" target-x="712.8" target-y="598.8"></path><path d="M 672.50 598.80 L 701.30 598.80 L 701.30 621.80 L 672.50 621.80 Z" fill="#a8beef" fill-rule="nonzero" group-id="1,6,9" node-id="262" stroke="none" target-height="23" target-width="28.799988" target-x="672.5" target-y="598.8"></path><path d="M 672.50 634.80 L 701.30 634.80 L 701.30 657.80 L 672.50 657.80 Z" fill="#a8beef" fill-rule="nonzero" group-id="1,6,9" node-id="264" stroke="none" target-height="23" target-width="28.799988" target-x="672.5" target-y="634.8"></path><path d="M 753.10 598.80 L 781.90 598.80 L 781.90 621.80 L 753.10 621.80 Z" fill="#a8beef" fill-rule="nonzero" group-id="1,6,9" node-id="266" stroke="none" target-height="23" target-width="28.800049" target-x="753.1" target-y="598.8"></path><path d="M 712.80 490.80 L 741.60 490.80 L 741.60 513.80 L 712.80 513.80 Z" fill="#a8beef" fill-rule="nonzero" group-id="1,6,9" node-id="268" stroke="none" target-height="23" target-width="28.799988" target-x="712.8" target-y="490.8"></path><path d="M 753.10 490.80 L 781.90 490.80 L 781.90 513.80 L 753.10 513.80 Z" fill="#a8beef" fill-rule="nonzero" group-id="1,6,9" node-id="270" stroke="none" target-height="23" target-width="28.800049" target-x="753.1" target-y="490.8"></path><path d="M 712.80 526.80 L 741.60 526.80 L 741.60 549.80 L 712.80 549.80 Z" fill="#a8beef" fill-rule="nonzero" group-id="1,6,9" node-id="272" stroke="none" target-height="23" target-width="28.799988" target-x="712.8" target-y="526.8"></path><path d="M 753.10 526.80 L 781.90 526.80 L 781.90 549.80 L 753.10 549.80 Z" fill="#a8beef" fill-rule="nonzero" group-id="1,6,9" node-id="274" stroke="none" target-height="23" target-width="28.800049" target-x="753.1" target-y="526.8"></path><path d="M 793.40 526.80 L 822.20 526.80 L 822.20 549.80 L 793.40 549.80 Z" fill="#a8beef" fill-rule="nonzero" group-id="1,6,9" node-id="276" stroke="none" target-height="23" target-width="28.799988" target-x="793.4" target-y="526.8"></path><path d="M 793.40 562.80 L 822.20 562.80 L 822.20 585.80 L 793.40 585.80 Z" fill="#a8beef" fill-rule="nonzero" group-id="1,6,9" node-id="278" stroke="none" target-height="23" target-width="28.799988" target-x="793.4" target-y="562.8"></path><path d="M 793.40 598.80 L 822.20 598.80 L 822.20 621.80 L 793.40 621.80 Z" fill="#a8beef" fill-rule="nonzero" group-id="1,6,9" node-id="280" stroke="none" target-height="23" target-width="28.799988" target-x="793.4" target-y="598.8"></path><path d="M 793.40 634.80 L 822.20 634.80 L 822.20 657.80 L 793.40 657.80 Z" fill="#a8beef" fill-rule="nonzero" group-id="1,6,9" node-id="282" stroke="none" target-height="23" target-width="28.799988" target-x="793.4" target-y="634.8"></path><path d="M 712.80 562.80 L 741.60 562.80 L 741.60 585.80 L 712.80 585.80 Z" fill="#a8beef" fill-rule="nonzero" group-id="1,6,9" node-id="284" stroke="none" target-height="23" target-width="28.799988" target-x="712.8" target-y="562.8"></path><path d="M 753.10 562.80 L 781.90 562.80 L 781.90 585.80 L 753.10 585.80 Z" fill="#a8beef" fill-rule="nonzero" group-id="1,6,9" node-id="286" stroke="none" target-height="23" target-width="28.800049" target-x="753.1" target-y="562.8"></path><path d="M 712.80 634.80 L 741.60 634.80 L 741.60 657.80 L 712.80 657.80 Z" fill="#a8beef" fill-rule="nonzero" group-id="1,6,9" node-id="288" stroke="none" target-height="23" target-width="28.799988" target-x="712.8" target-y="634.8"></path><path d="M 753.10 634.80 L 781.90 634.80 L 781.90 657.80 L 753.10 657.80 Z" fill="#a8beef" fill-rule="nonzero" group-id="1,6,9" node-id="290" stroke="none" target-height="23" target-width="28.800049" target-x="753.1" target-y="634.8"></path></g></g><g node-id="390"><g node-id="393"><path d="M 92.60 752.80 L 105.20 743.50 L 128.30 728.50 L 155.60 712.40 L 182.80 698.20 L 197.30 691.10 L 213.30 683.90 L 230.70 676.40 L 248.30 669.40 L 267.20 662.60 L 287.50 655.80 L 318.60 646.60 L 335.10 642.40 L 352.40 638.30 L 369.60 634.80 L 387.40 631.60 L 405.80 628.70 L 424.90 626.30 L 443.80 624.40 L 463.40 623.00 L 483.50 622.10 L 504.20 621.80 L 521.70 622.10 L 539.00 622.80 L 556.00 623.90 L 572.80 625.50 L 606.10 629.80 L 638.20 635.40 L 659.30 639.90 L 679.60 644.80 L 699.30 650.10 L 718.90 655.90 L 737.50 661.80 L 773.00 674.40 L 805.30 687.30 L 828.10 697.30 L 848.30 706.70 L 867.30 716.10 L 883.30 724.50 L 909.50 739.20 L 931.60 752.80 L 914.70 747.70 L 888.80 741.60 L 859.20 736.20 L 842.80 733.80 L 823.80 731.50 L 801.80 729.30 L 779.80 727.70 L 755.00 726.40 L 727.20 725.50 L 714.50 725.50 L 702.30 726.00 L 690.50 726.80 L 672.80 728.70 L 655.50 731.20 L 603.00 740.30 L 572.00 745.10 L 545.20 748.10 L 531.50 749.10 L 516.90 749.80 L 501.30 750.00 L 479.60 749.80 L 439.30 748.00 L 420.00 746.70 L 343.20 739.90 L 302.40 736.70 L 258.10 734.20 L 243.60 733.80 L 229.50 733.90 L 215.80 734.30 L 189.00 736.20 L 158.60 739.70 L 128.10 744.80 L 116.30 747.20 L 92.60 752.80 Z" fill="url(#SVGID_1_)" fill-rule="nonzero" group-id="1,7,10" node-id="298" stroke="none" target-height="131" target-width="839" target-x="92.6" target-y="621.8"></path><path d="M 429.20 625.80 L 424.40 629.80 L 422.80 631.80 L 421.60 634.00 L 420.80 636.20 L 420.60 638.30 L 420.90 640.70 L 421.80 643.10 L 423.40 645.60 L 425.70 648.10 L 431.40 652.30 L 439.90 656.60 L 446.10 658.90 L 453.30 661.20 L 469.90 664.90 L 489.00 667.60 L 499.00 668.50 L 520.60 669.20 L 531.70 669.00 L 552.20 667.60 L 562.20 666.40 L 579.60 663.20 L 587.90 661.10 L 595.10 658.90 L 605.90 654.40 L 609.80 652.30 L 615.50 648.00 L 617.80 645.50 L 619.40 643.10 L 620.30 640.70 L 620.60 638.30 L 620.30 636.20 L 619.60 634.00 L 618.30 631.70 L 600.00 628.80 L 581.30 626.40 L 562.30 624.40 L 543.20 622.90 L 523.70 622.00 L 504.00 621.70 L 484.70 622.00 L 465.90 622.90 L 447.30 624.10 L 429.20 625.80 Z" fill="url(#SVGID_2_)" fill-rule="nonzero" group-id="1,7,10" node-id="300" stroke="none" target-height="47.5" target-width="199.99997" target-x="420.6" target-y="621.7"></path><g node-id="395"><path d="M 387.10 679.10 L 387.30 680.70 L 387.20 682.30 L 386.50 684.10 L 385.30 686.10 L 383.40 688.40 L 380.70 691.00 L 377.10 693.70 L 368.90 698.60 L 363.80 701.10 L 352.90 705.50 L 346.70 707.50 L 340.40 709.10 L 328.80 711.40 L 323.20 712.10 L 313.60 712.30 L 309.10 711.90 L 305.50 711.30 L 302.60 710.30 L 300.50 709.30 L 298.00 706.90 L 297.30 705.50 L 297.10 703.90 L 297.90 700.50 L 299.10 698.50 L 301.10 696.20 L 303.70 693.60 L 307.30 690.90 L 315.50 686.00 L 320.60 683.50 L 331.60 679.10 L 337.80 677.10 L 344.10 675.50 L 355.60 673.20 L 361.30 672.50 L 370.80 672.30 L 375.30 672.60 L 379.00 673.30 L 381.90 674.30 L 385.40 676.40 L 386.50 677.70 L 387.10 679.10 Z" fill="#3b6ce4" fill-rule="nonzero" group-id="1,7,10,12" node-id="304" stroke="none" target-height="40" target-width="90.19998" target-x="297.1" target-y="672.3"></path></g><path d="M 562.40 701.60 L 568.00 703.60 L 573.20 705.90 L 577.90 708.50 L 581.80 711.30 L 585.70 715.20 L 587.70 718.90 L 587.90 720.50 L 587.70 722.10 L 587.00 723.50 L 585.90 724.80 L 584.10 725.90 L 579.80 727.30 L 576.70 727.80 L 572.00 727.90 L 566.60 727.40 L 561.00 726.40 L 555.30 724.90 L 549.60 723.00 L 544.50 720.70 L 539.70 718.00 L 535.90 715.30 L 531.90 711.30 L 530.00 707.70 L 529.70 706.00 L 529.90 704.40 L 530.60 703.00 L 531.80 701.80 L 533.50 700.60 L 537.90 699.20 L 540.90 698.80 L 545.60 698.70 L 551.10 699.10 L 556.60 700.10 L 562.40 701.60 Z" fill="#3b6ce4" fill-rule="nonzero" group-id="1,7,10,13" node-id="309" stroke="none" target-height="29.200012" target-width="58.200012" target-x="529.7" target-y="698.7"></path></g><g node-id="394"><g node-id="397"><path d="M 749.80 629.80 L 752.10 627.10 L 753.90 624.20 L 755.20 621.10 L 756.10 617.90 L 756.40 614.60 L 756.20 611.20 L 755.50 608.20 L 754.40 605.40 L 753.00 602.80 L 751.20 600.40 L 746.70 596.40 L 741.00 593.40 L 741.10 590.70 L 740.80 587.80 L 739.90 584.80 L 738.60 582.20 L 736.80 579.90 L 734.70 578.00 L 732.30 576.40 L 729.70 575.20 L 726.90 574.50 L 724.00 574.40 L 721.00 574.70 L 718.10 575.60 L 715.50 576.90 L 713.20 578.70 L 711.30 580.80 L 709.70 583.20 L 708.60 585.80 L 707.90 588.60 L 707.80 591.50 L 708.10 594.60 L 709.20 597.90 L 706.70 600.10 L 702.80 605.00 L 700.20 610.50 L 699.50 613.40 L 699.30 616.40 L 699.50 619.50 L 700.10 622.30 L 702.40 627.30 L 704.00 629.60 L 701.50 631.50 L 697.90 635.50 L 696.60 637.80 L 695.90 640.10 L 695.60 642.60 L 695.90 645.20 L 696.70 647.60 L 698.10 650.00 L 699.80 652.10 L 702.00 654.10 L 704.70 656.00 L 711.00 659.00 L 718.50 660.90 L 722.50 661.40 L 726.80 661.60 L 735.10 660.90 L 738.90 660.10 L 745.90 657.60 L 751.60 654.10 L 753.80 652.10 L 755.50 650.00 L 756.90 647.60 L 757.70 645.20 L 758.00 642.60 L 757.70 640.20 L 757.00 637.90 L 755.80 635.60 L 754.20 633.60 L 749.80 629.80 Z" fill="url(#SVGID_3_)" fill-rule="nonzero" group-id="1,7,11,14" node-id="317" stroke="none" target-height="87.19995" target-width="62.400024" target-x="695.6" target-y="574.4"></path><g node-id="399"><g node-id="401"><path d="M 726.10 688.10 L 725.10 686.40 L 724.80 685.20 L 726.90 661.90 L 727.10 653.50 L 727.00 641.60 L 726.40 633.40 L 724.50 621.30 L 724.60 620.10 L 725.30 618.10 L 726.10 617.50 L 726.80 617.50 L 727.40 618.10 L 727.90 619.50 L 729.80 631.90 L 730.60 644.80 L 730.70 653.70 L 729.60 673.20 L 728.30 685.60 L 727.50 687.80 L 726.80 688.20 L 726.10 688.10 Z" fill="#ff7f2a" fill-rule="nonzero" group-id="1,7,11,14,16,18" node-id="323" stroke="none" target-height="70.70001" target-width="6.200012" target-x="724.5" target-y="617.5"></path></g></g></g><g node-id="398"><path d="M 805.70 676.50 L 807.50 674.20 L 808.80 671.60 L 809.30 669.70 L 809.40 665.90 L 808.80 663.60 L 807.90 661.60 L 806.50 659.80 L 804.90 658.20 L 800.70 655.70 L 800.60 652.50 L 800.10 650.80 L 798.30 648.00 L 796.40 646.40 L 794.30 645.30 L 791.00 644.80 L 789.30 645.00 L 786.10 646.30 L 784.90 647.30 L 783.30 649.20 L 782.20 651.40 L 781.80 654.60 L 782.60 658.30 L 779.20 661.80 L 778.10 663.90 L 777.30 666.00 L 777.00 668.30 L 777.10 670.60 L 777.60 672.70 L 779.70 676.40 L 777.60 678.00 L 776.20 679.70 L 775.20 681.70 L 774.90 683.80 L 775.20 685.70 L 776.00 687.50 L 777.30 689.30 L 779.00 690.70 L 781.10 692.00 L 786.40 693.90 L 792.70 694.60 L 799.00 693.90 L 804.30 692.00 L 808.10 689.20 L 809.40 687.50 L 810.20 685.70 L 810.50 683.80 L 810.10 681.80 L 809.10 679.80 L 807.60 678.10 L 805.70 676.50 Z" fill="url(#SVGID_4_)" fill-rule="nonzero" group-id="1,7,11,15" node-id="330" stroke="none" target-height="49.799988" target-width="35.599976" target-x="774.9" target-y="644.8"></path><g node-id="400"><g node-id="402"><path d="M 792.10 709.80 L 791.50 708.90 L 791.40 707.30 L 792.40 697.50 L 792.60 683.30 L 791.20 670.90 L 791.60 669.80 L 792.40 669.50 L 793.10 670.60 L 794.20 677.70 L 794.70 690.10 L 794.30 698.10 L 793.30 708.30 L 792.90 709.60 L 792.10 709.80 Z" fill="#ff7f2a" fill-rule="nonzero" group-id="1,7,11,15,17,19" node-id="336" stroke="none" target-height="40.299988" target-width="3.5" target-x="791.2" target-y="669.5"></path></g></g></g></g></g></g><path d="M 488.10 300.50 L 307.60 595.60 L 305.90 599.00 L 304.70 602.30 L 304.10 605.70 L 304.00 609.10 L 304.30 612.40 L 305.10 615.60 L 306.40 618.70 L 308.00 621.50 L 310.00 624.20 L 312.30 626.50 L 314.90 628.50 L 317.90 630.20 L 321.10 631.40 L 324.50 632.20 L 328.30 632.50 L 689.40 632.50 L 693.20 632.20 L 696.60 631.40 L 699.80 630.20 L 702.80 628.50 L 705.40 626.50 L 707.70 624.10 L 709.70 621.50 L 711.30 618.60 L 712.60 615.50 L 713.40 612.30 L 713.70 609.00 L 713.60 605.60 L 713.00 602.30 L 711.80 598.90 L 710.10 595.60 L 529.60 300.50 L 527.60 297.70 L 525.40 295.40 L 523.00 293.40 L 520.40 291.80 L 514.80 289.60 L 508.90 288.90 L 502.90 289.60 L 497.30 291.80 L 494.70 293.40 L 492.30 295.40 L 490.10 297.70 L 488.10 300.50 Z" fill="#144dc1" fill-rule="nonzero" node-id="344" stroke="none" target-height="343.6" target-width="409.7" target-x="304" target-y="288.9"></path><path d="M 487.10 286.50 L 306.60 581.60 L 304.90 585.00 L 303.70 588.30 L 303.10 591.70 L 303.00 595.10 L 303.30 598.40 L 304.10 601.60 L 305.40 604.70 L 307.00 607.50 L 309.00 610.20 L 311.30 612.50 L 313.90 614.50 L 316.90 616.20 L 320.10 617.40 L 323.50 618.20 L 327.30 618.50 L 688.40 618.50 L 692.20 618.20 L 695.60 617.40 L 698.80 616.20 L 701.80 614.50 L 704.40 612.50 L 706.70 610.10 L 708.70 607.50 L 710.30 604.60 L 711.60 601.50 L 712.40 598.30 L 712.70 595.00 L 712.60 591.60 L 712.00 588.30 L 710.80 584.90 L 709.10 581.60 L 528.60 286.50 L 526.60 283.70 L 524.40 281.40 L 522.00 279.40 L 519.40 277.80 L 513.80 275.60 L 507.90 274.90 L 501.90 275.60 L 496.30 277.80 L 493.70 279.40 L 491.30 281.40 L 489.10 283.70 L 487.10 286.50 Z" fill="#3b6ce4" fill-rule="nonzero" node-id="346" stroke="none" target-height="343.6" target-width="409.7" target-x="303" target-y="274.9"></path><g node-id="385"><path d="M 507.90 356.10 L 504.90 356.30 L 499.40 357.80 L 497.00 359.10 L 493.90 361.30 L 491.40 364.00 L 489.30 367.10 L 488.10 369.60 L 486.70 375.10 L 486.60 378.10 L 491.30 517.60 L 491.70 520.50 L 492.50 523.20 L 493.70 525.70 L 495.40 527.90 L 497.30 529.80 L 499.60 531.40 L 502.20 532.60 L 504.90 533.30 L 507.80 533.60 L 510.70 533.30 L 513.40 532.60 L 516.00 531.40 L 518.30 529.80 L 520.20 527.90 L 521.90 525.70 L 523.10 523.20 L 523.90 520.50 L 524.30 517.60 L 529.00 378.10 L 528.90 375.10 L 527.60 369.60 L 526.40 367.10 L 524.30 364.00 L 521.80 361.30 L 518.80 359.10 L 516.30 357.80 L 510.90 356.30 L 507.90 356.10 Z" fill="#ff7f2a" fill-rule="nonzero" group-id="2" node-id="350" stroke="none" target-height="177.49997" target-width="42.399994" target-x="486.6" target-y="356.1"></path><path d="M 523.90 558.10 L 523.60 561.20 L 522.70 564.20 L 521.20 567.00 L 519.20 569.40 L 516.80 571.40 L 514.00 572.90 L 511.00 573.80 L 507.90 574.10 L 505.00 573.80 L 502.30 573.10 L 499.80 571.90 L 497.60 570.30 L 495.70 568.40 L 494.10 566.20 L 492.90 563.70 L 492.20 561.00 L 491.90 558.10 L 492.20 555.20 L 492.90 552.50 L 494.10 550.00 L 495.70 547.80 L 497.60 545.90 L 499.80 544.30 L 502.30 543.10 L 505.00 542.40 L 507.90 542.10 L 511.00 542.40 L 514.00 543.30 L 516.80 544.80 L 519.20 546.80 L 521.20 549.20 L 522.70 552.00 L 523.60 555.00 L 523.90 558.10 Z" fill="#ff7f2a" fill-rule="nonzero" group-id="2" node-id="352" stroke="none" target-height="32" target-width="32.00003" target-x="491.9" target-y="542.1"></path></g><g node-id="386"><path d="M 507.90 351.70 L 504.90 351.90 L 499.40 353.40 L 497.00 354.70 L 493.90 356.90 L 491.40 359.60 L 489.30 362.70 L 488.10 365.20 L 486.70 370.70 L 486.60 373.70 L 491.30 513.20 L 491.70 516.10 L 492.50 518.80 L 493.70 521.30 L 495.40 523.50 L 497.30 525.40 L 499.60 527.00 L 502.20 528.20 L 504.90 528.90 L 507.80 529.20 L 510.70 528.90 L 513.40 528.20 L 516.00 527.00 L 518.30 525.40 L 520.20 523.50 L 521.90 521.30 L 523.10 518.80 L 523.90 516.10 L 524.30 513.20 L 529.00 373.70 L 528.90 370.70 L 527.60 365.10 L 526.40 362.60 L 524.30 359.50 L 521.80 356.90 L 518.80 354.70 L 516.30 353.40 L 510.90 351.90 L 507.90 351.70 Z" fill="url(#SVGID_5_)" fill-rule="nonzero" group-id="3" node-id="357" stroke="none" target-height="177.5" target-width="42.399994" target-x="486.6" target-y="351.7"></path><path d="M 523.90 553.60 L 523.60 556.70 L 522.70 559.70 L 521.20 562.50 L 519.20 564.90 L 516.80 566.90 L 514.00 568.40 L 511.00 569.30 L 507.90 569.60 L 505.00 569.30 L 502.30 568.60 L 499.80 567.40 L 497.60 565.80 L 495.70 563.90 L 494.10 561.70 L 492.90 559.20 L 492.20 556.50 L 491.90 553.60 L 492.20 550.70 L 492.90 548.00 L 494.10 545.50 L 495.70 543.30 L 497.60 541.40 L 499.80 539.80 L 502.30 538.60 L 505.00 537.90 L 507.90 537.60 L 511.00 537.90 L 514.00 538.80 L 516.80 540.30 L 519.20 542.30 L 521.20 544.70 L 522.70 547.50 L 523.60 550.50 L 523.90 553.60 Z" fill="url(#SVGID_6_)" fill-rule="nonzero" group-id="3" node-id="359" stroke="none" target-height="32" target-width="32.00003" target-x="491.9" target-y="537.6"></path></g><g node-id="387"><path d="M 368.20 712.50 L 380.30 706.00 L 380.50 700.20 L 374.80 698.90 L 365.40 705.40 L 363.40 707.60 L 362.60 711.60 L 363.40 713.00 L 364.60 713.40 L 365.90 713.30 L 368.20 712.50 Z" fill="#353535" fill-rule="nonzero" group-id="4" node-id="364" stroke="none" target-height="14.5" target-width="17.899994" target-x="362.6" target-y="698.9"></path><path d="M 421.20 703.90 L 434.40 710.30 L 435.80 710.20 L 437.50 709.40 L 438.40 707.60 L 437.70 705.10 L 436.70 703.90 L 425.40 697.40 L 421.00 699.70 L 421.20 703.90 Z" fill="#353535" fill-rule="nonzero" group-id="4" node-id="366" stroke="none" target-height="12.899963" target-width="17.399994" target-x="421" target-y="697.4"></path><path d="M 374.50 670.00 L 375.70 698.20 L 367.40 704.70 L 370.90 708.50 L 380.40 703.00 L 382.40 670.00 Z" fill="#ffd7cd" fill-rule="nonzero" group-id="4" node-id="368" stroke="none" target-height="38.5" target-width="15" target-x="367.4" target-y="670"></path><path d="M 413.40 670.70 L 421.20 700.90 L 429.80 705.30 L 431.30 702.60 L 432.00 701.90 L 432.60 701.80 L 425.30 697.40 L 420.40 668.20 L 413.40 670.70 Z" fill="#ffd7cd" fill-rule="nonzero" group-id="4" node-id="370" stroke="none" target-height="37.099976" target-width="19.200012" target-x="413.4" target-y="668.2"></path><path d="M 388.80 487.70 L 392.10 485.80 L 396.40 484.30 L 398.60 484.30 L 401.70 485.00 L 404.60 486.20 L 406.30 487.30 L 407.80 488.70 L 409.00 490.50 L 409.80 492.70 L 410.20 495.50 L 410.00 501.40 L 407.80 514.10 L 406.80 524.90 L 406.70 536.80 L 407.50 548.70 L 406.70 551.90 L 404.30 554.50 L 401.70 556.20 L 396.00 558.70 L 390.40 559.60 L 387.50 559.60 L 384.30 559.20 L 375.90 556.60 L 370.60 553.80 L 368.00 551.10 L 366.70 547.60 L 366.50 545.30 L 366.70 543.00 L 367.60 539.70 L 377.30 516.40 L 378.50 512.90 L 380.80 501.30 L 382.20 496.90 L 383.90 493.00 L 385.40 490.70 L 387.00 488.90 L 388.80 487.70 Z" fill="#8d4344" fill-rule="nonzero" group-id="4" node-id="372" stroke="none" target-height="75.29999" target-width="43.700012" target-x="366.5" target-y="484.3"></path><path d="M 457.50 530.60 L 453.40 531.80 L 449.40 532.40 L 450.90 530.10 L 451.00 529.50 L 450.70 529.00 L 446.30 531.60 L 443.10 531.40 L 441.10 532.00 L 440.40 532.70 L 438.70 536.30 L 437.40 537.70 L 425.00 549.60 L 423.20 550.80 L 422.50 551.00 L 419.30 548.00 L 414.90 542.20 L 405.20 527.60 L 402.00 526.10 L 397.20 524.80 L 395.80 524.10 L 394.40 522.40 L 394.40 518.70 L 395.30 515.40 L 397.40 515.00 L 399.60 513.90 L 401.50 512.40 L 403.20 510.30 L 404.00 510.40 L 405.60 509.70 L 407.00 507.90 L 407.30 506.90 L 407.10 505.90 L 406.60 505.20 L 405.80 504.90 L 406.30 502.00 L 406.30 497.50 L 405.80 495.40 L 404.20 492.00 L 402.90 490.60 L 401.50 489.60 L 399.90 489.00 L 398.20 488.80 L 396.50 489.00 L 394.80 489.60 L 391.70 491.80 L 389.00 495.30 L 387.20 500.20 L 386.20 500.40 L 384.90 502.10 L 384.90 504.50 L 386.00 506.10 L 386.80 506.40 L 387.80 510.20 L 389.70 513.20 L 388.60 516.20 L 386.30 520.10 L 383.20 522.30 L 381.40 523.00 L 379.50 523.60 L 375.50 523.30 L 374.00 523.70 L 372.50 524.50 L 353.20 542.70 L 350.90 544.60 L 346.30 539.30 L 340.00 530.50 L 338.80 528.20 L 338.40 525.80 L 336.70 521.40 L 336.10 520.80 L 334.80 520.30 L 332.00 519.70 L 329.50 517.30 L 328.70 516.90 L 328.20 517.20 L 328.10 517.70 L 329.70 520.60 L 325.00 517.90 L 321.60 514.80 L 320.70 515.10 L 320.40 516.40 L 320.80 517.40 L 323.20 520.40 L 328.00 524.40 L 334.00 528.40 L 335.60 529.80 L 337.20 531.90 L 339.80 537.40 L 344.00 551.10 L 345.60 553.40 L 346.60 554.20 L 347.70 554.70 L 348.90 554.60 L 350.40 553.90 L 376.00 535.80 L 400.00 535.70 L 418.50 559.40 L 419.80 560.40 L 421.70 560.70 L 422.70 560.20 L 425.10 557.50 L 433.40 546.70 L 439.40 539.60 L 442.60 537.90 L 449.90 537.10 L 456.40 534.30 L 458.70 532.50 L 459.10 531.30 L 459.00 530.70 L 458.50 530.50 L 457.50 530.60 Z" fill="#ffd7cd" fill-rule="nonzero" group-id="4" node-id="374" stroke="none" target-height="71.900024" target-width="138.70001" target-x="320.4" target-y="488.8"></path><path d="M 369.20 574.10 L 365.90 580.70 L 363.60 587.30 L 362.80 590.80 L 362.40 594.30 L 362.50 597.80 L 362.80 601.70 L 364.20 609.40 L 366.10 616.40 L 370.50 629.30 L 371.00 631.70 L 371.30 634.30 L 370.70 646.70 L 370.60 656.60 L 370.80 661.80 L 373.00 682.80 L 384.20 679.10 L 385.20 602.00 L 389.70 601.30 L 402.60 643.20 L 412.80 679.10 L 416.30 678.90 L 420.00 677.30 L 423.10 674.30 L 423.70 673.00 L 423.90 671.30 L 423.00 665.20 L 421.60 660.80 L 414.90 643.80 L 413.20 638.70 L 410.80 609.10 L 409.10 595.60 L 407.00 584.30 L 405.10 578.90 L 400.80 573.20 L 399.00 571.40 L 399.10 571.60 L 369.20 574.10 Z" fill="#274da0" fill-rule="nonzero" group-id="4" node-id="376" stroke="none" target-height="111.39996" target-width="61.5" target-x="362.4" target-y="571.4"></path><path d="M 369.30 541.00 L 362.00 532.20 L 364.60 529.10 L 369.90 524.10 L 373.00 522.20 L 374.60 521.90 L 380.90 522.10 L 387.00 526.40 L 388.50 527.20 L 390.00 527.50 L 391.60 527.40 L 393.20 526.80 L 397.70 524.40 L 400.70 524.30 L 404.10 525.10 L 405.70 525.80 L 407.00 527.00 L 414.20 537.10 L 414.30 537.60 L 404.90 544.20 L 404.00 544.10 L 401.70 541.20 L 401.20 541.30 L 400.80 549.50 L 401.10 557.20 L 402.60 564.10 L 406.10 576.20 L 399.50 579.20 L 394.20 581.10 L 389.50 581.60 L 382.90 581.20 L 379.50 580.60 L 364.50 576.80 L 370.20 565.10 L 372.60 559.00 L 373.90 553.90 L 374.90 538.30 L 374.00 538.10 L 370.10 541.20 L 369.30 541.00 Z" fill="#dbeefe" fill-rule="nonzero" group-id="4" node-id="378" stroke="none" target-height="59.69995" target-width="52.299988" target-x="362" target-y="521.9"></path><path d="M 387.10 496.80 L 390.30 496.10 L 394.60 494.40 L 396.90 492.90 L 398.90 491.00 L 400.50 488.60 L 399.10 487.20 L 397.90 486.70 L 396.50 486.60 L 394.40 487.20 L 392.90 488.10 L 390.20 491.10 L 387.10 496.80 Z" fill="#8d4344" fill-rule="nonzero" group-id="4" node-id="380" stroke="none" target-height="10.199982" target-width="13.399994" target-x="387.1" target-y="486.6"></path><path d="M 398.00 490.60 L 399.90 495.20 L 401.10 497.20 L 404.60 501.60 L 407.10 503.70 L 408.40 496.00 L 401.10 486.30 L 398.00 490.60 Z" fill="#8d4344" fill-rule="nonzero" group-id="4" node-id="382" stroke="none" target-height="17.400024" target-width="10.399994" target-x="398" target-y="486.3"></path></g></svg>